G04 ---------------------------- Layer name :TOP PASTER LAYER*
G04 easyEDA 0.1*
G04 Scale: 100 percent, Rotated: No, Reflected: No *
G04 Dimensions in inches *
G04 leading zeros omitted , absolute positions ,2 integer and 4 * 
%FSLAX24Y24*%
%MOIN*%
G90*
G70D02*

%ADD15R,0.023620X0.019685*%
%ADD16R,0.019685X0.023620*%
%ADD17R,0.009450X0.009450*%
%ADD18R,0.139370X0.139370*%
%ADD19R,0.009450X0.031102*%
%ADD20R,0.009842X0.009842*%
%ADD21R,0.010630X0.012992*%
%ADD22R,0.031496X0.031496*%
%ADD23R,0.062992X0.023620*%
%ADD24R,0.062992X0.031496*%
%ADD25R,0.047240X0.035433*%
%ADD26R,0.039370X0.041339*%
%ADD27R,0.041339X0.086614*%
%ADD28R,0.033465X0.029527*%
%ADD29R,0.026772X0.013780*%
%ADD30R,0.064960X0.094490*%
%ADD31C,0.013780*%
%ADD33R,0.033465X0.025591*%
%ADD34R,0.059055X0.039370*%
%ADD35R,0.059842X0.025984*%
%ADD36R,0.133858X0.059055*%
%ADD37R,0.137790X0.039370*%
%ADD38R,0.011810X0.031496*%
%ADD39R,0.031496X0.035433*%
%ADD40R,0.047240X0.157480*%

%LPD*%
G54D15*
G01X11732Y19152D03*
G01X11732Y18757D03*
G54D16*
G01X12225Y19130D03*
G01X12619Y19132D03*
G01X6161Y23592D03*
G01X6555Y23592D03*
G01X7546Y24292D03*
G01X7940Y24294D03*
G01X12225Y18619D03*
G01X12619Y18621D03*
G01X13838Y18571D03*
G01X14232Y18573D03*
G01X13838Y18061D03*
G01X14232Y18061D03*
G54D15*
G01X13346Y18040D03*
G01X13344Y18434D03*
G54D17*
G01X9826Y19330D03*
G01X9609Y19332D03*
G01X9826Y19548D03*
G01X9826Y20415D03*
G01X9609Y19115D03*
G01X9826Y20198D03*
G01X9609Y20415D03*
G01X9826Y19982D03*
G01X9826Y19765D03*
G01X9609Y19765D03*
G01X9609Y19548D03*
G01X8961Y18248D03*
G01X8094Y18465D03*
G01X8094Y20415D03*
G01X8311Y20415D03*
G01X8526Y20415D03*
G01X8744Y20415D03*
G01X8961Y20415D03*
G01X9176Y20415D03*
G01X9394Y20415D03*
G01X8961Y20198D03*
G01X8744Y20198D03*
G01X8311Y20198D03*
G01X8526Y20198D03*
G01X9394Y20198D03*
G01X9176Y20198D03*
G01X8094Y20198D03*
G01X7878Y20415D03*
G01X7661Y20198D03*
G01X7878Y20198D03*
G01X7661Y19982D03*
G01X7878Y19982D03*
G01X7661Y19765D03*
G01X7878Y19765D03*
G01X7661Y19548D03*
G01X7878Y19548D03*
G01X7661Y19332D03*
G01X7878Y19332D03*
G01X7661Y19115D03*
G01X7878Y19115D03*
G01X7878Y18898D03*
G01X7661Y18898D03*
G01X7661Y18682D03*
G01X7878Y18682D03*
G01X7661Y18248D03*
G01X7878Y18465D03*
G01X7661Y18465D03*
G01X8094Y18248D03*
G01X7878Y18248D03*
G01X8311Y18248D03*
G01X8311Y18465D03*
G01X8526Y18248D03*
G01X8526Y18465D03*
G01X9826Y18682D03*
G01X8744Y18465D03*
G01X8744Y18248D03*
G01X9176Y18248D03*
G01X9394Y18248D03*
G01X9176Y18465D03*
G01X9394Y18465D03*
G01X9826Y18248D03*
G01X9609Y18248D03*
G01X9826Y18465D03*
G01X9609Y18465D03*
G01X9609Y18682D03*
G01X9609Y18898D03*
G01X8961Y18465D03*
G54D18*
G01X8744Y19332D03*
G54D19*
G01X9609Y20088D03*
G54D20*
G01X11278Y18527D03*
G01X11278Y18684D03*
G01X11278Y18840D03*
G01X11119Y18840D03*
G01X11119Y18684D03*
G01X11119Y18527D03*
G54D21*
G01X4409Y27078D03*
G01X4213Y27078D03*
G01X4015Y27078D03*
G01X4015Y26809D03*
G01X4213Y26809D03*
G01X4409Y26809D03*
G54D16*
G01X6432Y22565D03*
G01X6038Y22563D03*
G54D15*
G01X11409Y26544D03*
G01X11409Y26938D03*
G01X9953Y26546D03*
G01X9951Y26940D03*
G54D22*
G01X7794Y27446D03*
G01X7205Y27446D03*
G54D16*
G01X1842Y18565D03*
G01X2236Y18565D03*
G01X13676Y28238D03*
G01X13282Y28236D03*
G01X1323Y28238D03*
G01X1717Y28238D03*
G01X6869Y28509D03*
G01X7263Y28509D03*
G01X8130Y28507D03*
G01X7736Y28507D03*
G01X4113Y18021D03*
G01X4507Y18021D03*
G54D15*
G01X9236Y22584D03*
G01X9236Y22978D03*
G54D23*
G01X12071Y22013D03*
G01X12071Y22513D03*
G01X12071Y23013D03*
G01X12071Y23513D03*
G01X9944Y23513D03*
G01X9944Y23013D03*
G01X9944Y22513D03*
G01X9944Y22013D03*
G54D16*
G01X8865Y22092D03*
G01X9259Y22092D03*
G54D24*
G01X14232Y16969D03*
G01X14232Y15632D03*
G54D16*
G01X11086Y17757D03*
G01X10692Y17755D03*
G54D25*
G01X6559Y21167D03*
G01X6557Y21994D03*
G54D16*
G01X6425Y19061D03*
G01X6819Y19061D03*
G54D15*
G01X8219Y21601D03*
G01X8221Y21207D03*
G01X9244Y21600D03*
G01X9244Y21205D03*
G01X7196Y21601D03*
G01X7198Y21207D03*
G01X7709Y21601D03*
G01X7709Y21207D03*
G01X8732Y21600D03*
G01X8732Y21205D03*
G54D16*
G01X10692Y18269D03*
G01X10298Y18267D03*
G01X6425Y20084D03*
G01X6819Y20084D03*
G01X6425Y20596D03*
G01X6819Y20596D03*
G01X5853Y18352D03*
G01X5459Y18351D03*
G54D26*
G01X12184Y20946D03*
G54D27*
G01X12763Y20348D03*
G54D26*
G01X12184Y19746D03*
G54D27*
G01X11601Y20348D03*
G54D28*
G01X10150Y17221D03*
G01X9617Y17221D03*
G01X10150Y17636D03*
G01X9617Y17636D03*
G54D16*
G01X6819Y26128D03*
G01X6426Y26127D03*
G01X6038Y24103D03*
G01X6432Y24105D03*
G01X7940Y25671D03*
G01X7546Y25669D03*
G54D15*
G01X7486Y24784D03*
G01X7486Y25178D03*
G54D16*
G01X6819Y19571D03*
G01X6425Y19571D03*
G54D29*
G01X5169Y25502D03*
G01X5169Y25246D03*
G01X5169Y24990D03*
G01X5169Y24734D03*
G01X6396Y24734D03*
G01X6396Y24990D03*
G01X6396Y25246D03*
G01X6396Y25502D03*
G54D30*
G01X5782Y25115D03*
G54D31*
G01X5298Y25502D03*
G01X5298Y25246D03*
G01X5298Y24990D03*
G01X5298Y24734D03*
G01X6267Y24734D03*
G01X6267Y24990D03*
G01X6267Y25246D03*
G01X6267Y25502D03*
G54D16*
G01X5567Y24103D03*
G01X5173Y24103D03*
G01X7303Y27998D03*
G01X7696Y27998D03*
G54D15*
G01X2440Y17961D03*
G01X2442Y17567D03*
G54D33*
G01X3569Y17930D03*
G01X3569Y17596D03*
G01X3000Y17596D03*
G01X3000Y17930D03*
G54D16*
G01X457Y28238D03*
G01X851Y28238D03*
G54D15*
G01X1861Y17678D03*
G01X1859Y18073D03*
G54D16*
G01X14542Y28238D03*
G01X14148Y28236D03*
G01X4113Y17509D03*
G01X4507Y17509D03*
G01X8884Y26340D03*
G01X8490Y26338D03*
G54D34*
G01X12519Y25340D03*
G01X12519Y26600D03*
G54D15*
G01X8000Y24784D03*
G01X7998Y25178D03*
G54D35*
G01X11032Y24234D03*
G01X8694Y24234D03*
G01X11032Y24734D03*
G01X11032Y25234D03*
G01X8694Y24734D03*
G01X8694Y25234D03*
G01X11032Y25734D03*
G01X8694Y25734D03*
G54D16*
G01X6432Y23080D03*
G01X6038Y23078D03*
G54D36*
G01X1288Y24255D03*
G54D37*
G01X3551Y25178D03*
G01X3551Y25967D03*
G54D36*
G01X1288Y26892D03*
G54D38*
G01X11763Y27777D03*
G01X11567Y27777D03*
G01X11369Y27777D03*
G01X11173Y27777D03*
G01X10976Y27777D03*
G01X10778Y27777D03*
G01X10582Y27777D03*
G01X10386Y27777D03*
G01X10188Y27777D03*
G01X9992Y27777D03*
G01X9794Y27777D03*
G01X9598Y27777D03*
G01X11861Y28250D03*
G01X11665Y28250D03*
G01X11467Y28250D03*
G01X11271Y28250D03*
G01X11075Y28250D03*
G01X10878Y28250D03*
G01X10484Y28250D03*
G01X10286Y28250D03*
G01X10090Y28250D03*
G01X9894Y28250D03*
G01X9696Y28250D03*
G01X9500Y28250D03*
G54D15*
G01X4940Y26694D03*
G01X4940Y27088D03*
G01X5453Y26696D03*
G01X5451Y27090D03*
G54D21*
G01X10484Y26607D03*
G01X10680Y26607D03*
G01X10878Y26607D03*
G01X10878Y26876D03*
G01X10680Y26876D03*
G01X10484Y26876D03*
G54D39*
G01X5894Y19828D03*
G01X5894Y20498D03*
G54D38*
G01X5401Y27777D03*
G01X5205Y27777D03*
G01X5007Y27777D03*
G01X4811Y27777D03*
G01X4613Y27777D03*
G01X4417Y27777D03*
G01X4221Y27777D03*
G01X4023Y27777D03*
G01X3826Y27777D03*
G01X3630Y27777D03*
G01X3432Y27777D03*
G01X3236Y27777D03*
G01X5500Y28250D03*
G01X5303Y28250D03*
G01X5105Y28250D03*
G01X4909Y28250D03*
G01X4713Y28250D03*
G01X4515Y28250D03*
G01X4121Y28250D03*
G01X3925Y28250D03*
G01X3728Y28250D03*
G01X3532Y28250D03*
G01X3334Y28250D03*
G01X3138Y28250D03*
G54D40*
G01X815Y21319D03*
G01X5225Y21319D03*

M00*
M02*