G04 ---------------------------- Layer name :BOTTOM PASTER LAYER*
G04 easyEDA 0.1*
G04 Scale: 100 percent, Rotated: No, Reflected: No *
G04 Dimensions in inches *
G04 leading zeros omitted , absolute positions ,2 integer and 4 * 
%FSLAX24Y24*%
%MOIN*%
G90*
G70D02*

%ADD15R,0.027560X0.007874*%

%LPD*%
G36*
G01X5461Y20934D02*
G01X5461Y20265D01*
G01X5361Y20265D01*
G01X5165Y20461D01*
G01X5165Y20738D01*
G01X5361Y20934D01*
G01X5461Y20934D01*
G37*
G36*
G01X5538Y20265D02*
G01X5538Y20934D01*
G01X5638Y20934D01*
G01X5834Y20738D01*
G01X5834Y20461D01*
G01X5638Y20265D01*
G01X5538Y20265D01*
G37*
G54D15*
G01X5500Y20600D03*
G36*
G01X5461Y26934D02*
G01X5461Y26263D01*
G01X5363Y26263D01*
G01X5165Y26461D01*
G01X5165Y26736D01*
G01X5363Y26934D01*
G01X5461Y26934D01*
G37*
G36*
G01X5540Y26263D02*
G01X5540Y26934D01*
G01X5638Y26934D01*
G01X5836Y26736D01*
G01X5836Y26461D01*
G01X5638Y26263D01*
G01X5540Y26263D01*
G37*
G01X5501Y26598D03*
G36*
G01X5461Y22934D02*
G01X5461Y22263D01*
G01X5363Y22263D01*
G01X5165Y22461D01*
G01X5165Y22736D01*
G01X5363Y22934D01*
G01X5461Y22934D01*
G37*
G36*
G01X5540Y22263D02*
G01X5540Y22934D01*
G01X5638Y22934D01*
G01X5836Y22736D01*
G01X5836Y22461D01*
G01X5638Y22263D01*
G01X5540Y22263D01*
G37*
G01X5501Y22598D03*
G36*
G01X5538Y24265D02*
G01X5538Y24934D01*
G01X5638Y24934D01*
G01X5834Y24738D01*
G01X5834Y24461D01*
G01X5638Y24265D01*
G01X5538Y24265D01*
G37*
G36*
G01X5461Y24934D02*
G01X5461Y24265D01*
G01X5361Y24265D01*
G01X5165Y24461D01*
G01X5165Y24738D01*
G01X5361Y24934D01*
G01X5461Y24934D01*
G37*
G01X5500Y24600D03*
G36*
G01X5540Y18263D02*
G01X5540Y18934D01*
G01X5638Y18934D01*
G01X5836Y18736D01*
G01X5836Y18461D01*
G01X5638Y18263D01*
G01X5540Y18263D01*
G37*
G36*
G01X5461Y18934D02*
G01X5461Y18263D01*
G01X5363Y18263D01*
G01X5165Y18461D01*
G01X5165Y18736D01*
G01X5363Y18934D01*
G01X5461Y18934D01*
G37*

M00*
M02*