G04 ---------------------------- Layer name :BOTTOM SILK LAYER*
G04 easyEDA 0.1*
G04 Scale: 100 percent, Rotated: No, Reflected: No *
G04 Dimensions in inches *
G04 leading zeros omitted , absolute positions ,2 integer and 4 * 
%FSLAX24Y24*%
%MOIN*%
G90*
G70D02*

%ADD11C,0.009842*%

%LPD*%
G54D11*
G01X5322Y20178D02*
G01X5677Y20178D01*
G01X5925Y20422D02*
G01X5925Y20777D01*
G01X5322Y21025D02*
G01X5677Y21025D01*
G01X5078Y20777D02*
G01X5078Y20422D01*
G01X5078Y20422D02*
G01X5322Y20178D01*
G01X5677Y20178D02*
G01X5925Y20422D01*
G01X5925Y20777D02*
G01X5677Y21025D01*
G01X5322Y21025D02*
G01X5078Y20777D01*
G01X5323Y26177D02*
G01X5678Y26177D01*
G01X5926Y26421D02*
G01X5926Y26776D01*
G01X5323Y27024D02*
G01X5678Y27024D01*
G01X5079Y26776D02*
G01X5079Y26421D01*
G01X5079Y26421D02*
G01X5323Y26177D01*
G01X5678Y26177D02*
G01X5926Y26421D01*
G01X5926Y26776D02*
G01X5678Y27024D01*
G01X5323Y27024D02*
G01X5079Y26776D01*
G01X5323Y22177D02*
G01X5678Y22177D01*
G01X5926Y22421D02*
G01X5926Y22776D01*
G01X5323Y23024D02*
G01X5678Y23024D01*
G01X5079Y22776D02*
G01X5079Y22421D01*
G01X5079Y22421D02*
G01X5323Y22177D01*
G01X5678Y22177D02*
G01X5926Y22421D01*
G01X5926Y22776D02*
G01X5678Y23024D01*
G01X5323Y23024D02*
G01X5079Y22776D01*
G01X5677Y25021D02*
G01X5322Y25021D01*
G01X5074Y24777D02*
G01X5074Y24422D01*
G01X5677Y24174D02*
G01X5322Y24174D01*
G01X5921Y24422D02*
G01X5921Y24777D01*
G01X5921Y24777D02*
G01X5677Y25021D01*
G01X5322Y25021D02*
G01X5074Y24777D01*
G01X5074Y24422D02*
G01X5322Y24174D01*
G01X5677Y24174D02*
G01X5921Y24422D01*
G01X5678Y19020D02*
G01X5323Y19020D01*
G01X5075Y18776D02*
G01X5075Y18421D01*
G01X5678Y18173D02*
G01X5323Y18173D01*
G01X5922Y18421D02*
G01X5922Y18776D01*
G01X5922Y18776D02*
G01X5678Y19020D01*
G01X5323Y19020D02*
G01X5075Y18776D01*
G01X5075Y18421D02*
G01X5323Y18173D01*
G01X5678Y18173D02*
G01X5922Y18421D01*

%LPD*%
G36*
G01X4736Y26398D02*
G01X4736Y26398D01*
G01X4736Y26911D01*
G01X4561Y26911D01*
G01X4561Y26911D01*
G01X4520Y26909D01*
G01X4482Y26903D01*
G01X4448Y26891D01*
G01X4417Y26876D01*
G01X4417Y26876D01*
G01X4390Y26854D01*
G01X4372Y26825D01*
G01X4360Y26789D01*
G01X4357Y26746D01*
G01X4357Y26746D01*
G01X4360Y26704D01*
G01X4372Y26668D01*
G01X4390Y26638D01*
G01X4417Y26615D01*
G01X4417Y26615D01*
G01X4448Y26596D01*
G01X4482Y26583D01*
G01X4518Y26575D01*
G01X4557Y26573D01*
G01X4621Y26573D01*
G01X4621Y26398D01*
G01X4736Y26398D01*
G37*
G36*
G01X4221Y26398D02*
G01X4221Y26398D01*
G01X4317Y26911D01*
G01X4198Y26911D01*
G01X4163Y26671D01*
G01X4163Y26671D01*
G01X4160Y26652D01*
G01X4158Y26632D01*
G01X4155Y26611D01*
G01X4153Y26592D01*
G01X4153Y26592D01*
G01X4150Y26571D01*
G01X4148Y26551D01*
G01X4145Y26530D01*
G01X4142Y26509D01*
G01X4140Y26509D01*
G01X4140Y26509D01*
G01X4136Y26530D01*
G01X4132Y26551D01*
G01X4127Y26571D01*
G01X4123Y26592D01*
G01X4123Y26592D01*
G01X4120Y26611D01*
G01X4116Y26632D01*
G01X4112Y26652D01*
G01X4109Y26671D01*
G01X4053Y26911D01*
G01X3955Y26911D01*
G01X3900Y26671D01*
G01X3900Y26671D01*
G01X3896Y26652D01*
G01X3892Y26633D01*
G01X3888Y26613D01*
G01X3884Y26592D01*
G01X3884Y26592D01*
G01X3881Y26572D01*
G01X3877Y26551D01*
G01X3873Y26530D01*
G01X3869Y26509D01*
G01X3867Y26509D01*
G01X3867Y26509D01*
G01X3864Y26530D01*
G01X3861Y26551D01*
G01X3858Y26571D01*
G01X3855Y26592D01*
G01X3855Y26592D01*
G01X3853Y26612D01*
G01X3850Y26632D01*
G01X3847Y26652D01*
G01X3844Y26671D01*
G01X3809Y26911D01*
G01X3698Y26911D01*
G01X3790Y26398D01*
G01X3936Y26398D01*
G01X3986Y26632D01*
G01X3986Y26632D01*
G01X3988Y26647D01*
G01X3992Y26661D01*
G01X3994Y26677D01*
G01X3998Y26692D01*
G01X3998Y26692D01*
G01X4000Y26707D01*
G01X4002Y26722D01*
G01X4004Y26736D01*
G01X4007Y26751D01*
G01X4009Y26751D01*
G01X4009Y26751D01*
G01X4012Y26736D01*
G01X4014Y26722D01*
G01X4017Y26707D01*
G01X4019Y26692D01*
G01X4019Y26692D01*
G01X4022Y26677D01*
G01X4025Y26661D01*
G01X4028Y26647D01*
G01X4030Y26632D01*
G01X4078Y26398D01*
G01X4221Y26398D01*
G37*
G36*
G01X3511Y26398D02*
G01X3511Y26398D01*
G01X3628Y26398D01*
G01X3628Y26911D01*
G01X3442Y26911D01*
G01X3442Y26911D01*
G01X3367Y26903D01*
G01X3303Y26878D01*
G01X3303Y26878D01*
G01X3277Y26857D01*
G01X3259Y26829D01*
G01X3248Y26794D01*
G01X3244Y26753D01*
G01X3244Y26753D01*
G01X3251Y26701D01*
G01X3269Y26659D01*
G01X3269Y26659D01*
G01X3283Y26642D01*
G01X3299Y26627D01*
G01X3317Y26615D01*
G01X3336Y26605D01*
G01X3219Y26398D01*
G01X3350Y26398D01*
G01X3448Y26584D01*
G01X3511Y26584D01*
G01X3511Y26398D01*
G37*
G36*
G01X2988Y26398D02*
G01X2988Y26398D01*
G01X2988Y26911D01*
G01X2871Y26911D01*
G01X2871Y26496D01*
G01X2669Y26496D01*
G01X2669Y26398D01*
G01X2988Y26398D01*
G37*
G36*
G01X2580Y26398D02*
G01X2580Y26398D01*
G01X2580Y26911D01*
G01X2259Y26911D01*
G01X2259Y26815D01*
G01X2463Y26815D01*
G01X2463Y26711D01*
G01X2288Y26711D01*
G01X2288Y26615D01*
G01X2463Y26615D01*
G01X2463Y26496D01*
G01X2251Y26496D01*
G01X2251Y26398D01*
G01X2580Y26398D01*
G37*
G36*
G01X2148Y26398D02*
G01X2148Y26398D01*
G01X2148Y26911D01*
G01X2003Y26911D01*
G01X2003Y26911D01*
G01X1948Y26908D01*
G01X1898Y26896D01*
G01X1853Y26877D01*
G01X1815Y26851D01*
G01X1815Y26851D01*
G01X1785Y26816D01*
G01X1763Y26772D01*
G01X1750Y26719D01*
G01X1746Y26657D01*
G01X1746Y26657D01*
G01X1750Y26596D01*
G01X1763Y26543D01*
G01X1784Y26498D01*
G01X1815Y26461D01*
G01X1815Y26461D01*
G01X1852Y26434D01*
G01X1895Y26414D01*
G01X1943Y26402D01*
G01X1996Y26398D01*
G01X2148Y26398D01*
G37*

%LPC*%
G36*
G01X4621Y26665D02*
G01X4621Y26665D01*
G01X4565Y26665D01*
G01X4565Y26665D01*
G01X4523Y26670D01*
G01X4493Y26685D01*
G01X4475Y26711D01*
G01X4469Y26746D01*
G01X4469Y26746D01*
G01X4471Y26765D01*
G01X4476Y26781D01*
G01X4484Y26794D01*
G01X4496Y26803D01*
G01X4496Y26803D01*
G01X4509Y26810D01*
G01X4526Y26815D01*
G01X4545Y26818D01*
G01X4567Y26819D01*
G01X4621Y26819D01*
G01X4621Y26665D01*
G37*
G36*
G01X3511Y26676D02*
G01X3511Y26676D01*
G01X3451Y26676D01*
G01X3451Y26676D01*
G01X3411Y26680D01*
G01X3382Y26695D01*
G01X3364Y26719D01*
G01X3359Y26753D01*
G01X3359Y26753D01*
G01X3360Y26770D01*
G01X3365Y26784D01*
G01X3372Y26796D01*
G01X3382Y26805D01*
G01X3382Y26805D01*
G01X3396Y26811D01*
G01X3412Y26816D01*
G01X3430Y26819D01*
G01X3451Y26819D01*
G01X3511Y26819D01*
G01X3511Y26676D01*
G37*
G36*
G01X2032Y26492D02*
G01X2032Y26492D01*
G01X2011Y26492D01*
G01X2011Y26492D01*
G01X1951Y26501D01*
G01X1905Y26528D01*
G01X1905Y26528D01*
G01X1875Y26579D01*
G01X1865Y26657D01*
G01X1865Y26657D01*
G01X1875Y26735D01*
G01X1905Y26784D01*
G01X1905Y26784D01*
G01X1951Y26810D01*
G01X2011Y26819D01*
G01X2032Y26819D01*
G01X2032Y26492D01*
G37*

%LPD*%

%LPD*%
G36*
G01X4736Y24384D02*
G01X4736Y24384D01*
G01X4736Y24896D01*
G01X4561Y24896D01*
G01X4561Y24896D01*
G01X4488Y24890D01*
G01X4428Y24871D01*
G01X4428Y24871D01*
G01X4386Y24832D01*
G01X4373Y24769D01*
G01X4373Y24769D01*
G01X4374Y24752D01*
G01X4377Y24735D01*
G01X4383Y24719D01*
G01X4390Y24703D01*
G01X4390Y24703D01*
G01X4400Y24688D01*
G01X4411Y24676D01*
G01X4424Y24666D01*
G01X4440Y24659D01*
G01X4440Y24655D01*
G01X4440Y24655D01*
G01X4421Y24649D01*
G01X4403Y24640D01*
G01X4388Y24629D01*
G01X4373Y24615D01*
G01X4373Y24615D01*
G01X4362Y24599D01*
G01X4354Y24580D01*
G01X4349Y24559D01*
G01X4348Y24534D01*
G01X4348Y24534D01*
G01X4362Y24466D01*
G01X4405Y24419D01*
G01X4405Y24419D01*
G01X4435Y24404D01*
G01X4469Y24393D01*
G01X4506Y24386D01*
G01X4546Y24384D01*
G01X4736Y24384D01*
G37*
G36*
G01X3988Y24384D02*
G01X3988Y24384D01*
G01X4019Y24505D01*
G01X4176Y24505D01*
G01X4207Y24384D01*
G01X4326Y24384D01*
G01X4165Y24896D01*
G01X4026Y24896D01*
G01X3865Y24384D01*
G01X3988Y24384D01*
G37*
G36*
G01X3603Y24375D02*
G01X3603Y24375D01*
G01X3603Y24375D01*
G01X3666Y24382D01*
G01X3723Y24403D01*
G01X3723Y24403D01*
G01X3771Y24441D01*
G01X3809Y24492D01*
G01X3809Y24492D01*
G01X3823Y24523D01*
G01X3833Y24558D01*
G01X3839Y24596D01*
G01X3842Y24638D01*
G01X3842Y24638D01*
G01X3839Y24678D01*
G01X3833Y24716D01*
G01X3823Y24751D01*
G01X3809Y24782D01*
G01X3809Y24782D01*
G01X3769Y24835D01*
G01X3719Y24875D01*
G01X3719Y24875D01*
G01X3661Y24898D01*
G01X3600Y24907D01*
G01X3600Y24907D01*
G01X3575Y24905D01*
G01X3552Y24902D01*
G01X3531Y24895D01*
G01X3511Y24886D01*
G01X3511Y24886D01*
G01X3491Y24876D01*
G01X3474Y24865D01*
G01X3458Y24853D01*
G01X3444Y24840D01*
G01X3507Y24765D01*
G01X3507Y24765D01*
G01X3516Y24774D01*
G01X3526Y24782D01*
G01X3537Y24789D01*
G01X3548Y24794D01*
G01X3548Y24794D01*
G01X3559Y24800D01*
G01X3571Y24803D01*
G01X3583Y24806D01*
G01X3596Y24807D01*
G01X3596Y24807D01*
G01X3646Y24796D01*
G01X3686Y24763D01*
G01X3686Y24763D01*
G01X3713Y24710D01*
G01X3723Y24640D01*
G01X3723Y24640D01*
G01X3714Y24570D01*
G01X3688Y24517D01*
G01X3688Y24517D01*
G01X3649Y24485D01*
G01X3598Y24475D01*
G01X3598Y24475D01*
G01X3583Y24475D01*
G01X3568Y24478D01*
G01X3554Y24482D01*
G01X3542Y24488D01*
G01X3542Y24488D01*
G01X3530Y24495D01*
G01X3519Y24503D01*
G01X3508Y24512D01*
G01X3498Y24523D01*
G01X3436Y24450D01*
G01X3436Y24450D01*
G01X3471Y24417D01*
G01X3511Y24393D01*
G01X3555Y24379D01*
G01X3603Y24375D01*
G37*
G36*
G01X3359Y24384D02*
G01X3359Y24384D01*
G01X3359Y24896D01*
G01X3244Y24896D01*
G01X3244Y24686D01*
G01X3240Y24686D01*
G01X3088Y24896D01*
G01X2959Y24896D01*
G01X3115Y24692D01*
G01X2932Y24384D01*
G01X3059Y24384D01*
G01X3184Y24601D01*
G01X3244Y24521D01*
G01X3244Y24384D01*
G01X3359Y24384D01*
G37*
G36*
G01X2876Y24384D02*
G01X2876Y24384D01*
G01X2876Y24896D01*
G01X2759Y24896D01*
G01X2759Y24482D01*
G01X2557Y24482D01*
G01X2557Y24384D01*
G01X2876Y24384D01*
G37*
G36*
G01X2467Y24384D02*
G01X2467Y24384D01*
G01X2467Y24896D01*
G01X2351Y24896D01*
G01X2351Y24384D01*
G01X2467Y24384D01*
G37*
G36*
G01X2003Y24375D02*
G01X2003Y24375D01*
G01X2003Y24375D01*
G01X2054Y24379D01*
G01X2101Y24391D01*
G01X2144Y24412D01*
G01X2182Y24440D01*
G01X2182Y24440D01*
G01X2214Y24478D01*
G01X2236Y24523D01*
G01X2250Y24576D01*
G01X2255Y24638D01*
G01X2255Y24638D01*
G01X2252Y24678D01*
G01X2246Y24716D01*
G01X2236Y24751D01*
G01X2221Y24782D01*
G01X2221Y24782D01*
G01X2182Y24835D01*
G01X2130Y24875D01*
G01X2130Y24875D01*
G01X2071Y24898D01*
G01X2005Y24907D01*
G01X2005Y24907D01*
G01X1953Y24901D01*
G01X1909Y24886D01*
G01X1909Y24886D01*
G01X1889Y24875D01*
G01X1872Y24864D01*
G01X1857Y24852D01*
G01X1844Y24840D01*
G01X1903Y24765D01*
G01X1903Y24765D01*
G01X1914Y24774D01*
G01X1924Y24781D01*
G01X1935Y24788D01*
G01X1946Y24794D01*
G01X1946Y24794D01*
G01X1957Y24800D01*
G01X1970Y24803D01*
G01X1985Y24806D01*
G01X2001Y24807D01*
G01X2001Y24807D01*
G01X2055Y24796D01*
G01X2098Y24763D01*
G01X2098Y24763D01*
G01X2127Y24710D01*
G01X2136Y24640D01*
G01X2136Y24640D01*
G01X2128Y24570D01*
G01X2101Y24517D01*
G01X2101Y24517D01*
G01X2055Y24485D01*
G01X1992Y24475D01*
G01X1992Y24475D01*
G01X1975Y24475D01*
G01X1960Y24478D01*
G01X1947Y24483D01*
G01X1936Y24490D01*
G01X1936Y24578D01*
G01X2021Y24578D01*
G01X2021Y24673D01*
G01X1834Y24673D01*
G01X1834Y24436D01*
G01X1834Y24436D01*
G01X1849Y24424D01*
G01X1866Y24413D01*
G01X1885Y24402D01*
G01X1905Y24392D01*
G01X1905Y24392D01*
G01X1952Y24379D01*
G01X2003Y24375D01*
G37*
G36*
G01X1728Y24384D02*
G01X1728Y24384D01*
G01X1728Y24896D01*
G01X1613Y24896D01*
G01X1613Y24700D01*
G01X1436Y24700D01*
G01X1436Y24896D01*
G01X1319Y24896D01*
G01X1319Y24384D01*
G01X1436Y24384D01*
G01X1436Y24598D01*
G01X1613Y24598D01*
G01X1613Y24384D01*
G01X1728Y24384D01*
G37*
G36*
G01X1098Y24384D02*
G01X1098Y24384D01*
G01X1098Y24800D01*
G01X1238Y24800D01*
G01X1238Y24896D01*
G01X840Y24896D01*
G01X840Y24800D01*
G01X980Y24800D01*
G01X980Y24384D01*
G01X1098Y24384D01*
G37*

%LPC*%
G36*
G01X4621Y24692D02*
G01X4621Y24692D01*
G01X4567Y24692D01*
G01X4567Y24692D01*
G01X4547Y24693D01*
G01X4530Y24696D01*
G01X4516Y24701D01*
G01X4505Y24707D01*
G01X4505Y24707D01*
G01X4496Y24717D01*
G01X4490Y24727D01*
G01X4487Y24739D01*
G01X4486Y24753D01*
G01X4486Y24753D01*
G01X4506Y24794D01*
G01X4567Y24807D01*
G01X4621Y24807D01*
G01X4621Y24692D01*
G37*
G36*
G01X4621Y24473D02*
G01X4621Y24473D01*
G01X4555Y24473D01*
G01X4555Y24473D01*
G01X4514Y24478D01*
G01X4484Y24491D01*
G01X4466Y24512D01*
G01X4461Y24542D01*
G01X4461Y24542D01*
G01X4466Y24570D01*
G01X4484Y24590D01*
G01X4514Y24602D01*
G01X4555Y24605D01*
G01X4621Y24605D01*
G01X4621Y24473D01*
G37*
G36*
G01X4140Y24644D02*
G01X4140Y24644D01*
G01X4153Y24596D01*
G01X4044Y24596D01*
G01X4055Y24644D01*
G01X4055Y24644D01*
G01X4060Y24663D01*
G01X4066Y24683D01*
G01X4071Y24704D01*
G01X4076Y24726D01*
G01X4076Y24726D01*
G01X4082Y24747D01*
G01X4086Y24768D01*
G01X4092Y24788D01*
G01X4096Y24809D01*
G01X4100Y24809D01*
G01X4100Y24809D01*
G01X4104Y24788D01*
G01X4110Y24767D01*
G01X4114Y24746D01*
G01X4119Y24725D01*
G01X4119Y24725D01*
G01X4124Y24703D01*
G01X4129Y24683D01*
G01X4135Y24663D01*
G01X4140Y24644D01*
G37*

%LPD*%

%LPD*%
G36*
G01X4580Y22359D02*
G01X4580Y22359D01*
G01X4580Y22359D01*
G01X4630Y22363D01*
G01X4680Y22377D01*
G01X4680Y22377D01*
G01X4728Y22400D01*
G01X4769Y22432D01*
G01X4703Y22511D01*
G01X4703Y22511D01*
G01X4690Y22500D01*
G01X4675Y22490D01*
G01X4659Y22481D01*
G01X4642Y22473D01*
G01X4642Y22473D01*
G01X4626Y22467D01*
G01X4609Y22462D01*
G01X4593Y22459D01*
G01X4578Y22459D01*
G01X4578Y22459D01*
G01X4523Y22471D01*
G01X4505Y22507D01*
G01X4505Y22507D01*
G01X4507Y22519D01*
G01X4511Y22529D01*
G01X4517Y22537D01*
G01X4526Y22544D01*
G01X4526Y22544D01*
G01X4536Y22549D01*
G01X4549Y22556D01*
G01X4563Y22562D01*
G01X4580Y22569D01*
G01X4646Y22598D01*
G01X4646Y22598D01*
G01X4666Y22607D01*
G01X4684Y22618D01*
G01X4701Y22632D01*
G01X4717Y22648D01*
G01X4717Y22648D01*
G01X4742Y22687D01*
G01X4750Y22738D01*
G01X4750Y22738D01*
G01X4737Y22797D01*
G01X4698Y22846D01*
G01X4698Y22846D01*
G01X4640Y22879D01*
G01X4567Y22890D01*
G01X4567Y22890D01*
G01X4545Y22889D01*
G01X4523Y22886D01*
G01X4501Y22881D01*
G01X4478Y22873D01*
G01X4478Y22873D01*
G01X4457Y22864D01*
G01X4437Y22852D01*
G01X4419Y22838D01*
G01X4401Y22823D01*
G01X4461Y22750D01*
G01X4461Y22750D01*
G01X4473Y22759D01*
G01X4486Y22767D01*
G01X4498Y22774D01*
G01X4511Y22780D01*
G01X4511Y22780D01*
G01X4524Y22784D01*
G01X4538Y22788D01*
G01X4552Y22790D01*
G01X4567Y22790D01*
G01X4567Y22790D01*
G01X4581Y22790D01*
G01X4594Y22788D01*
G01X4605Y22784D01*
G01X4615Y22778D01*
G01X4615Y22778D01*
G01X4622Y22771D01*
G01X4628Y22763D01*
G01X4631Y22754D01*
G01X4632Y22744D01*
G01X4632Y22744D01*
G01X4631Y22733D01*
G01X4627Y22723D01*
G01X4620Y22715D01*
G01X4609Y22709D01*
G01X4609Y22709D01*
G01X4598Y22702D01*
G01X4585Y22696D01*
G01X4570Y22690D01*
G01X4555Y22684D01*
G01X4488Y22657D01*
G01X4488Y22657D01*
G01X4466Y22646D01*
G01X4446Y22634D01*
G01X4429Y22620D01*
G01X4415Y22605D01*
G01X4415Y22605D01*
G01X4402Y22587D01*
G01X4393Y22566D01*
G01X4388Y22543D01*
G01X4386Y22517D01*
G01X4386Y22517D01*
G01X4399Y22457D01*
G01X4438Y22405D01*
G01X4438Y22405D01*
G01X4466Y22385D01*
G01X4499Y22370D01*
G01X4537Y22361D01*
G01X4580Y22359D01*
G37*
G36*
G01X4300Y22367D02*
G01X4300Y22367D01*
G01X4300Y22880D01*
G01X4123Y22880D01*
G01X4123Y22880D01*
G01X4082Y22878D01*
G01X4044Y22872D01*
G01X4010Y22860D01*
G01X3978Y22844D01*
G01X3978Y22844D01*
G01X3952Y22823D01*
G01X3934Y22794D01*
G01X3922Y22758D01*
G01X3919Y22715D01*
G01X3919Y22715D01*
G01X3922Y22673D01*
G01X3934Y22637D01*
G01X3952Y22607D01*
G01X3978Y22584D01*
G01X3978Y22584D01*
G01X4010Y22565D01*
G01X4044Y22552D01*
G01X4080Y22544D01*
G01X4119Y22542D01*
G01X4184Y22542D01*
G01X4184Y22367D01*
G01X4300Y22367D01*
G37*
G36*
G01X3830Y22367D02*
G01X3830Y22367D01*
G01X3830Y22880D01*
G01X3509Y22880D01*
G01X3509Y22784D01*
G01X3715Y22784D01*
G01X3715Y22680D01*
G01X3540Y22680D01*
G01X3540Y22584D01*
G01X3715Y22584D01*
G01X3715Y22465D01*
G01X3501Y22465D01*
G01X3501Y22367D01*
G01X3830Y22367D01*
G37*
G36*
G01X3126Y22367D02*
G01X3126Y22367D01*
G01X3157Y22490D01*
G01X3315Y22490D01*
G01X3346Y22367D01*
G01X3463Y22367D01*
G01X3303Y22880D01*
G01X3163Y22880D01*
G01X3003Y22367D01*
G01X3126Y22367D01*
G37*
G36*
G01X2948Y22367D02*
G01X2948Y22367D01*
G01X2948Y22880D01*
G01X2832Y22880D01*
G01X2832Y22671D01*
G01X2828Y22671D01*
G01X2676Y22880D01*
G01X2548Y22880D01*
G01X2703Y22677D01*
G01X2519Y22367D01*
G01X2646Y22367D01*
G01X2771Y22584D01*
G01X2832Y22505D01*
G01X2832Y22367D01*
G01X2948Y22367D01*
G37*
G36*
G01X2463Y22367D02*
G01X2463Y22367D01*
G01X2463Y22880D01*
G01X2142Y22880D01*
G01X2142Y22784D01*
G01X2348Y22784D01*
G01X2348Y22680D01*
G01X2173Y22680D01*
G01X2173Y22584D01*
G01X2348Y22584D01*
G01X2348Y22465D01*
G01X2134Y22465D01*
G01X2134Y22367D01*
G01X2463Y22367D01*
G37*
G36*
G01X1917Y22367D02*
G01X1917Y22367D01*
G01X2032Y22367D01*
G01X2032Y22880D01*
G01X1848Y22880D01*
G01X1848Y22880D01*
G01X1771Y22872D01*
G01X1707Y22846D01*
G01X1707Y22846D01*
G01X1682Y22826D01*
G01X1664Y22798D01*
G01X1653Y22763D01*
G01X1650Y22721D01*
G01X1650Y22721D01*
G01X1656Y22670D01*
G01X1675Y22628D01*
G01X1675Y22628D01*
G01X1688Y22611D01*
G01X1703Y22596D01*
G01X1721Y22584D01*
G01X1740Y22573D01*
G01X1625Y22367D01*
G01X1755Y22367D01*
G01X1853Y22553D01*
G01X1917Y22553D01*
G01X1917Y22367D01*
G37*

%LPC*%
G36*
G01X4184Y22634D02*
G01X4184Y22634D01*
G01X4126Y22634D01*
G01X4126Y22634D01*
G01X4085Y22639D01*
G01X4056Y22654D01*
G01X4038Y22680D01*
G01X4032Y22715D01*
G01X4032Y22715D01*
G01X4034Y22734D01*
G01X4039Y22750D01*
G01X4047Y22763D01*
G01X4057Y22773D01*
G01X4057Y22773D01*
G01X4071Y22780D01*
G01X4088Y22784D01*
G01X4107Y22788D01*
G01X4130Y22788D01*
G01X4184Y22788D01*
G01X4184Y22634D01*
G37*
G36*
G01X3278Y22628D02*
G01X3278Y22628D01*
G01X3290Y22580D01*
G01X3180Y22580D01*
G01X3192Y22628D01*
G01X3192Y22628D01*
G01X3198Y22647D01*
G01X3203Y22667D01*
G01X3209Y22688D01*
G01X3215Y22709D01*
G01X3215Y22709D01*
G01X3219Y22731D01*
G01X3225Y22752D01*
G01X3230Y22772D01*
G01X3234Y22792D01*
G01X3238Y22792D01*
G01X3238Y22792D01*
G01X3242Y22772D01*
G01X3247Y22751D01*
G01X3252Y22730D01*
G01X3257Y22709D01*
G01X3257Y22709D01*
G01X3262Y22687D01*
G01X3267Y22667D01*
G01X3272Y22647D01*
G01X3278Y22628D01*
G37*
G36*
G01X1917Y22644D02*
G01X1917Y22644D01*
G01X1857Y22644D01*
G01X1857Y22644D01*
G01X1815Y22649D01*
G01X1786Y22664D01*
G01X1768Y22688D01*
G01X1763Y22721D01*
G01X1763Y22721D01*
G01X1764Y22739D01*
G01X1768Y22753D01*
G01X1776Y22765D01*
G01X1786Y22773D01*
G01X1786Y22773D01*
G01X1800Y22780D01*
G01X1816Y22785D01*
G01X1835Y22788D01*
G01X1857Y22788D01*
G01X1917Y22788D01*
G01X1917Y22644D01*
G37*

%LPD*%

%LPD*%
G36*
G01X4621Y20352D02*
G01X4621Y20352D01*
G01X4736Y20352D01*
G01X4736Y20865D01*
G01X4551Y20865D01*
G01X4551Y20865D01*
G01X4476Y20856D01*
G01X4413Y20830D01*
G01X4413Y20830D01*
G01X4387Y20810D01*
G01X4369Y20782D01*
G01X4358Y20747D01*
G01X4355Y20705D01*
G01X4355Y20705D01*
G01X4361Y20654D01*
G01X4380Y20613D01*
G01X4380Y20613D01*
G01X4393Y20595D01*
G01X4409Y20580D01*
G01X4426Y20568D01*
G01X4446Y20557D01*
G01X4328Y20352D01*
G01X4459Y20352D01*
G01X4557Y20536D01*
G01X4621Y20536D01*
G01X4621Y20352D01*
G37*
G36*
G01X4028Y20342D02*
G01X4028Y20342D01*
G01X4028Y20342D01*
G01X4078Y20347D01*
G01X4125Y20359D01*
G01X4167Y20380D01*
G01X4205Y20409D01*
G01X4205Y20409D01*
G01X4237Y20446D01*
G01X4260Y20491D01*
G01X4274Y20544D01*
G01X4278Y20605D01*
G01X4278Y20605D01*
G01X4276Y20646D01*
G01X4270Y20684D01*
G01X4259Y20719D01*
G01X4244Y20751D01*
G01X4244Y20751D01*
G01X4205Y20803D01*
G01X4153Y20842D01*
G01X4153Y20842D01*
G01X4094Y20867D01*
G01X4028Y20875D01*
G01X4028Y20875D01*
G01X3977Y20869D01*
G01X3932Y20853D01*
G01X3932Y20853D01*
G01X3913Y20843D01*
G01X3896Y20832D01*
G01X3880Y20820D01*
G01X3867Y20807D01*
G01X3928Y20734D01*
G01X3928Y20734D01*
G01X3938Y20742D01*
G01X3948Y20749D01*
G01X3959Y20756D01*
G01X3969Y20763D01*
G01X3969Y20763D01*
G01X3981Y20768D01*
G01X3994Y20772D01*
G01X4009Y20774D01*
G01X4025Y20775D01*
G01X4025Y20775D01*
G01X4079Y20763D01*
G01X4121Y20730D01*
G01X4121Y20730D01*
G01X4150Y20678D01*
G01X4159Y20609D01*
G01X4159Y20609D01*
G01X4150Y20538D01*
G01X4123Y20486D01*
G01X4123Y20486D01*
G01X4079Y20453D01*
G01X4015Y20442D01*
G01X4015Y20442D01*
G01X3999Y20443D01*
G01X3984Y20446D01*
G01X3971Y20451D01*
G01X3961Y20457D01*
G01X3961Y20546D01*
G01X4046Y20546D01*
G01X4046Y20640D01*
G01X3859Y20640D01*
G01X3859Y20405D01*
G01X3859Y20405D01*
G01X3873Y20392D01*
G01X3889Y20381D01*
G01X3908Y20370D01*
G01X3930Y20361D01*
G01X3930Y20361D01*
G01X3976Y20347D01*
G01X4028Y20342D01*
G37*
G36*
G01X3751Y20352D02*
G01X3751Y20352D01*
G01X3751Y20865D01*
G01X3576Y20865D01*
G01X3576Y20865D01*
G01X3503Y20858D01*
G01X3442Y20838D01*
G01X3442Y20838D01*
G01X3401Y20800D01*
G01X3388Y20738D01*
G01X3388Y20738D01*
G01X3389Y20720D01*
G01X3392Y20703D01*
G01X3397Y20687D01*
G01X3405Y20671D01*
G01X3405Y20671D01*
G01X3414Y20656D01*
G01X3426Y20644D01*
G01X3439Y20634D01*
G01X3455Y20627D01*
G01X3455Y20623D01*
G01X3455Y20623D01*
G01X3436Y20617D01*
G01X3418Y20608D01*
G01X3403Y20597D01*
G01X3388Y20584D01*
G01X3388Y20584D01*
G01X3377Y20567D01*
G01X3369Y20548D01*
G01X3364Y20527D01*
G01X3363Y20503D01*
G01X3363Y20503D01*
G01X3377Y20434D01*
G01X3419Y20388D01*
G01X3419Y20388D01*
G01X3450Y20372D01*
G01X3484Y20361D01*
G01X3521Y20354D01*
G01X3561Y20352D01*
G01X3751Y20352D01*
G37*
G36*
G01X3117Y20352D02*
G01X3117Y20352D01*
G01X3117Y20865D01*
G01X3003Y20865D01*
G01X3003Y20450D01*
G01X2800Y20450D01*
G01X2800Y20352D01*
G01X3117Y20352D01*
G37*
G36*
G01X2711Y20352D02*
G01X2711Y20352D01*
G01X2711Y20865D01*
G01X2388Y20865D01*
G01X2388Y20767D01*
G01X2594Y20767D01*
G01X2594Y20665D01*
G01X2419Y20665D01*
G01X2419Y20567D01*
G01X2594Y20567D01*
G01X2594Y20450D01*
G01X2380Y20450D01*
G01X2380Y20352D01*
G01X2711Y20352D01*
G37*
G36*
G01X2278Y20352D02*
G01X2278Y20352D01*
G01X2278Y20865D01*
G01X2134Y20865D01*
G01X2134Y20865D01*
G01X2078Y20861D01*
G01X2028Y20849D01*
G01X1984Y20830D01*
G01X1946Y20803D01*
G01X1946Y20803D01*
G01X1916Y20769D01*
G01X1894Y20725D01*
G01X1881Y20672D01*
G01X1876Y20611D01*
G01X1876Y20611D01*
G01X1881Y20549D01*
G01X1894Y20496D01*
G01X1915Y20451D01*
G01X1946Y20415D01*
G01X1946Y20415D01*
G01X1983Y20387D01*
G01X2026Y20367D01*
G01X2074Y20355D01*
G01X2128Y20352D01*
G01X2278Y20352D01*
G37*

%LPC*%
G36*
G01X4621Y20628D02*
G01X4621Y20628D01*
G01X4561Y20628D01*
G01X4561Y20628D01*
G01X4520Y20633D01*
G01X4491Y20648D01*
G01X4473Y20672D01*
G01X4467Y20705D01*
G01X4467Y20705D01*
G01X4469Y20723D01*
G01X4473Y20737D01*
G01X4481Y20749D01*
G01X4492Y20757D01*
G01X4492Y20757D01*
G01X4505Y20764D01*
G01X4521Y20769D01*
G01X4540Y20772D01*
G01X4561Y20773D01*
G01X4621Y20773D01*
G01X4621Y20628D01*
G37*
G36*
G01X3636Y20659D02*
G01X3636Y20659D01*
G01X3582Y20659D01*
G01X3582Y20659D01*
G01X3562Y20661D01*
G01X3545Y20663D01*
G01X3531Y20669D01*
G01X3519Y20676D01*
G01X3519Y20676D01*
G01X3511Y20685D01*
G01X3505Y20695D01*
G01X3502Y20707D01*
G01X3501Y20721D01*
G01X3501Y20721D01*
G01X3521Y20762D01*
G01X3580Y20776D01*
G01X3636Y20776D01*
G01X3636Y20659D01*
G37*
G36*
G01X3636Y20442D02*
G01X3636Y20442D01*
G01X3571Y20442D01*
G01X3571Y20442D01*
G01X3529Y20446D01*
G01X3499Y20459D01*
G01X3481Y20480D01*
G01X3476Y20511D01*
G01X3476Y20511D01*
G01X3481Y20538D01*
G01X3499Y20558D01*
G01X3529Y20570D01*
G01X3571Y20573D01*
G01X3636Y20573D01*
G01X3636Y20442D01*
G37*
G36*
G01X2163Y20446D02*
G01X2163Y20446D01*
G01X2140Y20446D01*
G01X2140Y20446D01*
G01X2082Y20455D01*
G01X2036Y20482D01*
G01X2036Y20482D01*
G01X2006Y20532D01*
G01X1996Y20611D01*
G01X1996Y20611D01*
G01X2006Y20688D01*
G01X2036Y20736D01*
G01X2036Y20736D01*
G01X2082Y20763D01*
G01X2140Y20771D01*
G01X2163Y20771D01*
G01X2163Y20446D01*
G37*

%LPD*%

%LPD*%
G36*
G01X4465Y18336D02*
G01X4465Y18336D01*
G01X4496Y18457D01*
G01X4653Y18457D01*
G01X4684Y18336D01*
G01X4803Y18336D01*
G01X4642Y18848D01*
G01X4503Y18848D01*
G01X4342Y18336D01*
G01X4465Y18336D01*
G37*
G36*
G01X4286Y18336D02*
G01X4286Y18336D01*
G01X4286Y18848D01*
G01X4167Y18848D01*
G01X4032Y18594D01*
G01X3982Y18480D01*
G01X3980Y18480D01*
G01X3980Y18480D01*
G01X3981Y18502D01*
G01X3983Y18524D01*
G01X3986Y18547D01*
G01X3988Y18571D01*
G01X3988Y18571D01*
G01X3991Y18597D01*
G01X3992Y18621D01*
G01X3993Y18645D01*
G01X3994Y18667D01*
G01X3994Y18848D01*
G01X3884Y18848D01*
G01X3884Y18336D01*
G01X4003Y18336D01*
G01X4136Y18592D01*
G01X4186Y18703D01*
G01X4190Y18703D01*
G01X4190Y18703D01*
G01X4187Y18682D01*
G01X4185Y18659D01*
G01X4183Y18636D01*
G01X4180Y18611D01*
G01X4180Y18611D01*
G01X4178Y18588D01*
G01X4177Y18564D01*
G01X4176Y18541D01*
G01X4176Y18517D01*
G01X4176Y18336D01*
G01X4286Y18336D01*
G37*
G36*
G01X3663Y18336D02*
G01X3663Y18336D01*
G01X3663Y18752D01*
G01X3803Y18752D01*
G01X3803Y18848D01*
G01X3405Y18848D01*
G01X3405Y18752D01*
G01X3546Y18752D01*
G01X3546Y18336D01*
G01X3663Y18336D01*
G37*
G36*
G01X3325Y18336D02*
G01X3325Y18336D01*
G01X3325Y18848D01*
G01X3003Y18848D01*
G01X3003Y18752D01*
G01X3209Y18752D01*
G01X3209Y18648D01*
G01X3034Y18648D01*
G01X3034Y18552D01*
G01X3209Y18552D01*
G01X3209Y18434D01*
G01X2996Y18434D01*
G01X2996Y18336D01*
G01X3325Y18336D01*
G37*
G36*
G01X2892Y18336D02*
G01X2892Y18336D01*
G01X2892Y18848D01*
G01X2773Y18848D01*
G01X2640Y18594D01*
G01X2590Y18480D01*
G01X2586Y18480D01*
G01X2586Y18480D01*
G01X2588Y18502D01*
G01X2590Y18524D01*
G01X2593Y18547D01*
G01X2596Y18571D01*
G01X2596Y18571D01*
G01X2598Y18597D01*
G01X2599Y18621D01*
G01X2600Y18645D01*
G01X2601Y18667D01*
G01X2601Y18848D01*
G01X2490Y18848D01*
G01X2490Y18336D01*
G01X2609Y18336D01*
G01X2744Y18592D01*
G01X2794Y18703D01*
G01X2796Y18703D01*
G01X2796Y18703D01*
G01X2794Y18682D01*
G01X2792Y18659D01*
G01X2790Y18636D01*
G01X2788Y18611D01*
G01X2788Y18611D01*
G01X2785Y18588D01*
G01X2784Y18564D01*
G01X2783Y18541D01*
G01X2782Y18517D01*
G01X2782Y18336D01*
G01X2892Y18336D01*
G37*
G36*
G01X2369Y18336D02*
G01X2369Y18336D01*
G01X2369Y18848D01*
G01X2251Y18848D01*
G01X2117Y18594D01*
G01X2067Y18480D01*
G01X2063Y18480D01*
G01X2063Y18480D01*
G01X2065Y18502D01*
G01X2067Y18524D01*
G01X2069Y18547D01*
G01X2071Y18571D01*
G01X2071Y18571D01*
G01X2074Y18597D01*
G01X2076Y18621D01*
G01X2077Y18645D01*
G01X2078Y18667D01*
G01X2078Y18848D01*
G01X1967Y18848D01*
G01X1967Y18336D01*
G01X2086Y18336D01*
G01X2219Y18592D01*
G01X2269Y18703D01*
G01X2273Y18703D01*
G01X2273Y18703D01*
G01X2271Y18682D01*
G01X2269Y18659D01*
G01X2267Y18636D01*
G01X2265Y18611D01*
G01X2265Y18611D01*
G01X2262Y18588D01*
G01X2260Y18564D01*
G01X2259Y18541D01*
G01X2259Y18517D01*
G01X2259Y18336D01*
G01X2369Y18336D01*
G37*
G36*
G01X1573Y18336D02*
G01X1573Y18336D01*
G01X1605Y18457D01*
G01X1761Y18457D01*
G01X1792Y18336D01*
G01X1911Y18336D01*
G01X1751Y18848D01*
G01X1611Y18848D01*
G01X1451Y18336D01*
G01X1573Y18336D01*
G37*

%LPC*%
G36*
G01X4617Y18596D02*
G01X4617Y18596D01*
G01X4628Y18548D01*
G01X4519Y18548D01*
G01X4532Y18596D01*
G01X4532Y18596D01*
G01X4537Y18615D01*
G01X4542Y18635D01*
G01X4547Y18656D01*
G01X4553Y18678D01*
G01X4553Y18678D01*
G01X4558Y18699D01*
G01X4563Y18720D01*
G01X4568Y18740D01*
G01X4573Y18761D01*
G01X4576Y18761D01*
G01X4576Y18761D01*
G01X4581Y18740D01*
G01X4586Y18719D01*
G01X4591Y18698D01*
G01X4596Y18677D01*
G01X4596Y18677D01*
G01X4601Y18655D01*
G01X4606Y18635D01*
G01X4611Y18615D01*
G01X4617Y18596D01*
G37*
G36*
G01X1726Y18596D02*
G01X1726Y18596D01*
G01X1738Y18548D01*
G01X1628Y18548D01*
G01X1640Y18596D01*
G01X1640Y18596D01*
G01X1646Y18615D01*
G01X1651Y18635D01*
G01X1656Y18656D01*
G01X1661Y18678D01*
G01X1661Y18678D01*
G01X1667Y18699D01*
G01X1671Y18720D01*
G01X1677Y18740D01*
G01X1682Y18761D01*
G01X1684Y18761D01*
G01X1684Y18761D01*
G01X1690Y18740D01*
G01X1694Y18719D01*
G01X1700Y18698D01*
G01X1705Y18677D01*
G01X1705Y18677D01*
G01X1710Y18655D01*
G01X1715Y18635D01*
G01X1720Y18615D01*
G01X1726Y18596D01*
G37*

%LPD*%

%LPD*%
G36*
G01X12908Y27060D02*
G01X12908Y27060D01*
G01X12936Y27256D01*
G01X12941Y27387D01*
G01X12796Y27387D01*
G01X12800Y27256D01*
G01X12829Y27060D01*
G01X12908Y27060D01*
G37*
G36*
G01X12674Y27060D02*
G01X12674Y27060D01*
G01X12703Y27256D01*
G01X12708Y27387D01*
G01X12562Y27387D01*
G01X12567Y27256D01*
G01X12596Y27060D01*
G01X12674Y27060D01*
G37*
G36*
G01X12144Y26700D02*
G01X12144Y26700D01*
G01X12144Y26700D01*
G01X12184Y26702D01*
G01X12222Y26709D01*
G01X12258Y26721D01*
G01X12293Y26738D01*
G01X12293Y26738D01*
G01X12324Y26759D01*
G01X12353Y26784D01*
G01X12378Y26814D01*
G01X12401Y26848D01*
G01X12401Y26848D01*
G01X12419Y26887D01*
G01X12431Y26930D01*
G01X12439Y26977D01*
G01X12442Y27029D01*
G01X12442Y27029D01*
G01X12439Y27080D01*
G01X12431Y27127D01*
G01X12418Y27171D01*
G01X12400Y27211D01*
G01X12400Y27211D01*
G01X12377Y27246D01*
G01X12351Y27277D01*
G01X12322Y27304D01*
G01X12289Y27326D01*
G01X12289Y27326D01*
G01X12253Y27343D01*
G01X12217Y27356D01*
G01X12178Y27363D01*
G01X12139Y27366D01*
G01X12139Y27366D01*
G01X12080Y27359D01*
G01X12028Y27340D01*
G01X12028Y27340D01*
G01X11983Y27313D01*
G01X11946Y27282D01*
G01X12023Y27189D01*
G01X12023Y27189D01*
G01X12035Y27200D01*
G01X12048Y27210D01*
G01X12061Y27218D01*
G01X12075Y27226D01*
G01X12075Y27226D01*
G01X12089Y27232D01*
G01X12103Y27237D01*
G01X12119Y27240D01*
G01X12136Y27241D01*
G01X12136Y27241D01*
G01X12197Y27227D01*
G01X12248Y27185D01*
G01X12248Y27185D01*
G01X12268Y27155D01*
G01X12282Y27120D01*
G01X12291Y27079D01*
G01X12294Y27034D01*
G01X12294Y27034D01*
G01X12291Y26987D01*
G01X12283Y26945D01*
G01X12269Y26910D01*
G01X12251Y26880D01*
G01X12251Y26880D01*
G01X12201Y26839D01*
G01X12138Y26825D01*
G01X12138Y26825D01*
G01X12119Y26826D01*
G01X12101Y26829D01*
G01X12084Y26834D01*
G01X12068Y26842D01*
G01X12068Y26842D01*
G01X12053Y26851D01*
G01X12038Y26862D01*
G01X12025Y26873D01*
G01X12013Y26885D01*
G01X11936Y26795D01*
G01X11936Y26795D01*
G01X11964Y26766D01*
G01X11995Y26742D01*
G01X12028Y26724D01*
G01X12064Y26710D01*
G01X12103Y26703D01*
G01X12144Y26700D01*
G37*
G36*
G01X11614Y26700D02*
G01X11614Y26700D01*
G01X11614Y26700D01*
G01X11656Y26702D01*
G01X11695Y26710D01*
G01X11731Y26722D01*
G01X11765Y26739D01*
G01X11796Y26762D01*
G01X11825Y26789D01*
G01X11825Y26789D01*
G01X11849Y26820D01*
G01X11870Y26856D01*
G01X11885Y26895D01*
G01X11897Y26938D01*
G01X11903Y26985D01*
G01X11906Y27036D01*
G01X11906Y27036D01*
G01X11903Y27086D01*
G01X11897Y27133D01*
G01X11885Y27175D01*
G01X11870Y27214D01*
G01X11849Y27248D01*
G01X11825Y27279D01*
G01X11825Y27279D01*
G01X11781Y27317D01*
G01X11731Y27344D01*
G01X11676Y27360D01*
G01X11614Y27366D01*
G01X11614Y27366D01*
G01X11552Y27360D01*
G01X11497Y27344D01*
G01X11447Y27317D01*
G01X11404Y27279D01*
G01X11404Y27279D01*
G01X11379Y27248D01*
G01X11359Y27213D01*
G01X11343Y27175D01*
G01X11332Y27132D01*
G01X11325Y27086D01*
G01X11323Y27036D01*
G01X11323Y27036D01*
G01X11325Y26985D01*
G01X11332Y26938D01*
G01X11343Y26895D01*
G01X11359Y26856D01*
G01X11379Y26820D01*
G01X11404Y26789D01*
G01X11404Y26789D01*
G01X11447Y26750D01*
G01X11497Y26722D01*
G01X11552Y26705D01*
G01X11614Y26700D01*
G37*
G36*
G01X11202Y26712D02*
G01X11202Y26712D01*
G01X11202Y27354D01*
G01X11053Y27354D01*
G01X10886Y27035D01*
G01X10823Y26893D01*
G01X10819Y26893D01*
G01X10819Y26893D01*
G01X10823Y26947D01*
G01X10830Y27007D01*
G01X10830Y27007D01*
G01X10835Y27068D01*
G01X10837Y27127D01*
G01X10837Y27354D01*
G01X10699Y27354D01*
G01X10699Y26712D01*
G01X10848Y26712D01*
G01X11015Y27032D01*
G01X11078Y27172D01*
G01X11082Y27172D01*
G01X11082Y27172D01*
G01X11076Y27116D01*
G01X11071Y27057D01*
G01X11071Y27057D01*
G01X11065Y26997D01*
G01X11064Y26939D01*
G01X11064Y26712D01*
G01X11202Y26712D01*
G37*
G36*
G01X10548Y26712D02*
G01X10548Y26712D01*
G01X10548Y27354D01*
G01X10399Y27354D01*
G01X10232Y27035D01*
G01X10169Y26893D01*
G01X10165Y26893D01*
G01X10165Y26893D01*
G01X10169Y26947D01*
G01X10175Y27007D01*
G01X10175Y27007D01*
G01X10180Y27068D01*
G01X10182Y27127D01*
G01X10182Y27354D01*
G01X10045Y27354D01*
G01X10045Y26712D01*
G01X10193Y26712D01*
G01X10360Y27032D01*
G01X10423Y27172D01*
G01X10427Y27172D01*
G01X10427Y27172D01*
G01X10422Y27116D01*
G01X10416Y27057D01*
G01X10416Y27057D01*
G01X10411Y26997D01*
G01X10410Y26939D01*
G01X10410Y26712D01*
G01X10548Y26712D01*
G37*
G36*
G01X9893Y26712D02*
G01X9893Y26712D01*
G01X9893Y27354D01*
G01X9491Y27354D01*
G01X9491Y27232D01*
G01X9748Y27232D01*
G01X9748Y27103D01*
G01X9530Y27103D01*
G01X9530Y26982D01*
G01X9748Y26982D01*
G01X9748Y26834D01*
G01X9482Y26834D01*
G01X9482Y26712D01*
G01X9893Y26712D01*
G37*
G36*
G01X9086Y26700D02*
G01X9086Y26700D01*
G01X9086Y26700D01*
G01X9126Y26702D01*
G01X9164Y26709D01*
G01X9200Y26721D01*
G01X9235Y26738D01*
G01X9235Y26738D01*
G01X9266Y26759D01*
G01X9295Y26784D01*
G01X9320Y26814D01*
G01X9343Y26848D01*
G01X9343Y26848D01*
G01X9361Y26887D01*
G01X9373Y26930D01*
G01X9381Y26977D01*
G01X9384Y27029D01*
G01X9384Y27029D01*
G01X9381Y27080D01*
G01X9373Y27127D01*
G01X9360Y27171D01*
G01X9342Y27211D01*
G01X9342Y27211D01*
G01X9319Y27246D01*
G01X9293Y27277D01*
G01X9263Y27304D01*
G01X9231Y27326D01*
G01X9231Y27326D01*
G01X9195Y27343D01*
G01X9159Y27356D01*
G01X9120Y27363D01*
G01X9081Y27366D01*
G01X9081Y27366D01*
G01X9022Y27359D01*
G01X8970Y27340D01*
G01X8970Y27340D01*
G01X8925Y27313D01*
G01X8888Y27282D01*
G01X8965Y27189D01*
G01X8965Y27189D01*
G01X8977Y27200D01*
G01X8990Y27210D01*
G01X9003Y27218D01*
G01X9017Y27226D01*
G01X9017Y27226D01*
G01X9031Y27232D01*
G01X9045Y27237D01*
G01X9061Y27240D01*
G01X9078Y27241D01*
G01X9078Y27241D01*
G01X9139Y27227D01*
G01X9190Y27185D01*
G01X9190Y27185D01*
G01X9209Y27155D01*
G01X9223Y27120D01*
G01X9232Y27079D01*
G01X9235Y27034D01*
G01X9235Y27034D01*
G01X9232Y26987D01*
G01X9224Y26945D01*
G01X9211Y26910D01*
G01X9193Y26880D01*
G01X9193Y26880D01*
G01X9143Y26839D01*
G01X9080Y26825D01*
G01X9080Y26825D01*
G01X9061Y26826D01*
G01X9043Y26829D01*
G01X9026Y26834D01*
G01X9010Y26842D01*
G01X9010Y26842D01*
G01X8995Y26851D01*
G01X8980Y26862D01*
G01X8967Y26873D01*
G01X8955Y26885D01*
G01X8878Y26795D01*
G01X8878Y26795D01*
G01X8906Y26766D01*
G01X8937Y26742D01*
G01X8970Y26724D01*
G01X9006Y26710D01*
G01X9045Y26703D01*
G01X9086Y26700D01*
G37*
G36*
G01X8668Y26712D02*
G01X8668Y26712D01*
G01X8668Y27232D01*
G01X8844Y27232D01*
G01X8844Y27354D01*
G01X8346Y27354D01*
G01X8346Y27232D01*
G01X8522Y27232D01*
G01X8522Y26712D01*
G01X8668Y26712D01*
G37*
G36*
G01X8012Y26700D02*
G01X8012Y26700D01*
G01X8012Y26700D01*
G01X8054Y26702D01*
G01X8093Y26710D01*
G01X8129Y26722D01*
G01X8163Y26739D01*
G01X8194Y26762D01*
G01X8223Y26789D01*
G01X8223Y26789D01*
G01X8247Y26820D01*
G01X8267Y26856D01*
G01X8283Y26895D01*
G01X8294Y26938D01*
G01X8300Y26985D01*
G01X8303Y27036D01*
G01X8303Y27036D01*
G01X8300Y27086D01*
G01X8294Y27133D01*
G01X8283Y27175D01*
G01X8267Y27214D01*
G01X8247Y27248D01*
G01X8223Y27279D01*
G01X8223Y27279D01*
G01X8179Y27317D01*
G01X8129Y27344D01*
G01X8074Y27360D01*
G01X8012Y27366D01*
G01X8012Y27366D01*
G01X7950Y27360D01*
G01X7894Y27344D01*
G01X7844Y27317D01*
G01X7801Y27279D01*
G01X7801Y27279D01*
G01X7776Y27248D01*
G01X7756Y27213D01*
G01X7741Y27175D01*
G01X7729Y27132D01*
G01X7723Y27086D01*
G01X7721Y27036D01*
G01X7721Y27036D01*
G01X7723Y26985D01*
G01X7729Y26938D01*
G01X7741Y26895D01*
G01X7756Y26856D01*
G01X7776Y26820D01*
G01X7801Y26789D01*
G01X7801Y26789D01*
G01X7829Y26762D01*
G01X7860Y26739D01*
G01X7894Y26722D01*
G01X7930Y26710D01*
G01X7970Y26702D01*
G01X8012Y26700D01*
G37*
G36*
G01X7455Y26712D02*
G01X7455Y26712D01*
G01X7600Y26712D01*
G01X7600Y27354D01*
G01X7368Y27354D01*
G01X7368Y27354D01*
G01X7318Y27351D01*
G01X7273Y27343D01*
G01X7231Y27330D01*
G01X7194Y27311D01*
G01X7194Y27311D01*
G01X7162Y27285D01*
G01X7139Y27250D01*
G01X7125Y27206D01*
G01X7121Y27154D01*
G01X7121Y27154D01*
G01X7129Y27089D01*
G01X7153Y27038D01*
G01X7153Y27038D01*
G01X7189Y26998D01*
G01X7235Y26969D01*
G01X7090Y26712D01*
G01X7252Y26712D01*
G01X7375Y26943D01*
G01X7455Y26943D01*
G01X7455Y26712D01*
G37*
G36*
G01X6964Y27060D02*
G01X6964Y27060D01*
G01X6992Y27256D01*
G01X6997Y27387D01*
G01X6852Y27387D01*
G01X6857Y27256D01*
G01X6885Y27060D01*
G01X6964Y27060D01*
G37*
G36*
G01X6731Y27060D02*
G01X6731Y27060D01*
G01X6759Y27256D01*
G01X6764Y27387D01*
G01X6618Y27387D01*
G01X6623Y27256D01*
G01X6652Y27060D01*
G01X6731Y27060D01*
G37*

%LPC*%
G36*
G01X11614Y26825D02*
G01X11614Y26825D01*
G01X11614Y26825D01*
G01X11555Y26839D01*
G01X11510Y26882D01*
G01X11510Y26882D01*
G01X11493Y26913D01*
G01X11481Y26949D01*
G01X11474Y26990D01*
G01X11472Y27036D01*
G01X11472Y27036D01*
G01X11474Y27081D01*
G01X11481Y27121D01*
G01X11493Y27156D01*
G01X11510Y27186D01*
G01X11510Y27186D01*
G01X11555Y27227D01*
G01X11614Y27241D01*
G01X11614Y27241D01*
G01X11673Y27227D01*
G01X11719Y27186D01*
G01X11719Y27186D01*
G01X11735Y27156D01*
G01X11747Y27121D01*
G01X11754Y27081D01*
G01X11757Y27036D01*
G01X11757Y27036D01*
G01X11754Y26990D01*
G01X11747Y26949D01*
G01X11735Y26913D01*
G01X11719Y26882D01*
G01X11719Y26882D01*
G01X11673Y26839D01*
G01X11614Y26825D01*
G37*
G36*
G01X8012Y26825D02*
G01X8012Y26825D01*
G01X8012Y26825D01*
G01X7953Y26839D01*
G01X7908Y26882D01*
G01X7908Y26882D01*
G01X7891Y26913D01*
G01X7878Y26949D01*
G01X7871Y26990D01*
G01X7869Y27036D01*
G01X7869Y27036D01*
G01X7871Y27081D01*
G01X7878Y27121D01*
G01X7891Y27156D01*
G01X7908Y27186D01*
G01X7908Y27186D01*
G01X7953Y27227D01*
G01X8012Y27241D01*
G01X8012Y27241D01*
G01X8071Y27227D01*
G01X8116Y27186D01*
G01X8116Y27186D01*
G01X8133Y27156D01*
G01X8145Y27121D01*
G01X8152Y27081D01*
G01X8155Y27036D01*
G01X8155Y27036D01*
G01X8152Y26990D01*
G01X8145Y26949D01*
G01X8133Y26913D01*
G01X8116Y26882D01*
G01X8116Y26882D01*
G01X8071Y26839D01*
G01X8012Y26825D01*
G37*
G36*
G01X7455Y27058D02*
G01X7455Y27058D01*
G01X7380Y27058D01*
G01X7380Y27058D01*
G01X7328Y27064D01*
G01X7292Y27082D01*
G01X7270Y27112D01*
G01X7263Y27154D01*
G01X7263Y27154D01*
G01X7264Y27176D01*
G01X7270Y27194D01*
G01X7279Y27209D01*
G01X7293Y27220D01*
G01X7293Y27220D01*
G01X7309Y27228D01*
G01X7329Y27234D01*
G01X7353Y27238D01*
G01X7380Y27239D01*
G01X7455Y27239D01*
G01X7455Y27058D01*
G37*

%LPD*%

%LPD*%
G36*
G01X12786Y25460D02*
G01X12786Y25460D01*
G01X12918Y25865D01*
G01X12841Y25865D01*
G01X12756Y25578D01*
G01X12675Y25865D01*
G01X12600Y25865D01*
G01X12731Y25460D01*
G01X12786Y25460D01*
G37*
G36*
G01X12563Y25460D02*
G01X12563Y25460D01*
G01X12563Y25865D01*
G01X12299Y25865D01*
G01X12299Y25802D01*
G01X12492Y25802D01*
G01X12492Y25702D01*
G01X12332Y25702D01*
G01X12332Y25639D01*
G01X12492Y25639D01*
G01X12492Y25522D01*
G01X12300Y25522D01*
G01X12300Y25460D01*
G01X12563Y25460D01*
G37*
G36*
G01X12244Y25865D02*
G01X12244Y25865D01*
G01X12116Y25865D01*
G01X12116Y25865D01*
G01X12052Y25857D01*
G01X12009Y25833D01*
G01X12009Y25833D01*
G01X11982Y25795D01*
G01X11974Y25744D01*
G01X11974Y25744D01*
G01X11974Y25733D01*
G01X11976Y25722D01*
G01X11979Y25711D01*
G01X11984Y25699D01*
G01X11984Y25699D01*
G01X11989Y25688D01*
G01X11995Y25678D01*
G01X12003Y25669D01*
G01X12011Y25660D01*
G01X12011Y25660D01*
G01X12020Y25652D01*
G01X12030Y25646D01*
G01X12040Y25640D01*
G01X12052Y25636D01*
G01X11957Y25460D01*
G01X12039Y25460D01*
G01X12122Y25627D01*
G01X12170Y25627D01*
G01X12170Y25460D01*
G01X12244Y25460D01*
G01X12244Y25865D01*
G37*
G36*
G01X11757Y25694D02*
G01X11757Y25694D01*
G01X11757Y25694D01*
G01X11737Y25685D01*
G01X11720Y25675D01*
G01X11705Y25666D01*
G01X11693Y25656D01*
G01X11693Y25656D01*
G01X11682Y25647D01*
G01X11673Y25638D01*
G01X11665Y25628D01*
G01X11660Y25618D01*
G01X11660Y25618D01*
G01X11656Y25608D01*
G01X11653Y25597D01*
G01X11651Y25585D01*
G01X11651Y25572D01*
G01X11651Y25572D01*
G01X11652Y25556D01*
G01X11654Y25540D01*
G01X11659Y25525D01*
G01X11666Y25511D01*
G01X11666Y25511D01*
G01X11674Y25498D01*
G01X11685Y25486D01*
G01X11698Y25475D01*
G01X11713Y25466D01*
G01X11713Y25466D01*
G01X11730Y25458D01*
G01X11749Y25453D01*
G01X11770Y25449D01*
G01X11794Y25448D01*
G01X11794Y25448D01*
G01X11832Y25452D01*
G01X11868Y25462D01*
G01X11901Y25480D01*
G01X11932Y25505D01*
G01X11900Y25560D01*
G01X11899Y25561D01*
G01X11899Y25560D01*
G01X11899Y25560D01*
G01X11847Y25523D01*
G01X11788Y25511D01*
G01X11788Y25511D01*
G01X11773Y25512D01*
G01X11761Y25515D01*
G01X11750Y25519D01*
G01X11741Y25525D01*
G01X11741Y25525D01*
G01X11734Y25533D01*
G01X11729Y25543D01*
G01X11726Y25555D01*
G01X11725Y25568D01*
G01X11725Y25568D01*
G01X11725Y25575D01*
G01X11726Y25582D01*
G01X11729Y25588D01*
G01X11732Y25594D01*
G01X11732Y25594D01*
G01X11736Y25600D01*
G01X11741Y25605D01*
G01X11748Y25611D01*
G01X11756Y25617D01*
G01X11756Y25617D01*
G01X11765Y25623D01*
G01X11777Y25629D01*
G01X11789Y25636D01*
G01X11804Y25642D01*
G01X11804Y25642D01*
G01X11852Y25668D01*
G01X11886Y25697D01*
G01X11886Y25697D01*
G01X11897Y25713D01*
G01X11904Y25730D01*
G01X11909Y25749D01*
G01X11911Y25768D01*
G01X11911Y25768D01*
G01X11910Y25782D01*
G01X11907Y25796D01*
G01X11902Y25809D01*
G01X11895Y25822D01*
G01X11895Y25822D01*
G01X11886Y25834D01*
G01X11875Y25844D01*
G01X11863Y25853D01*
G01X11850Y25861D01*
G01X11850Y25861D01*
G01X11835Y25867D01*
G01X11819Y25872D01*
G01X11802Y25874D01*
G01X11785Y25875D01*
G01X11785Y25875D01*
G01X11765Y25874D01*
G01X11747Y25872D01*
G01X11731Y25868D01*
G01X11716Y25862D01*
G01X11716Y25862D01*
G01X11701Y25855D01*
G01X11687Y25845D01*
G01X11673Y25834D01*
G01X11660Y25821D01*
G01X11696Y25770D01*
G01X11697Y25769D01*
G01X11697Y25769D01*
G01X11697Y25769D01*
G01X11697Y25769D01*
G01X11697Y25769D01*
G01X11697Y25769D01*
G01X11697Y25769D01*
G01X11697Y25770D01*
G01X11697Y25770D01*
G01X11697Y25770D01*
G01X11697Y25770D01*
G01X11697Y25770D01*
G01X11705Y25781D01*
G01X11714Y25790D01*
G01X11724Y25798D01*
G01X11735Y25804D01*
G01X11735Y25804D01*
G01X11746Y25809D01*
G01X11759Y25812D01*
G01X11772Y25814D01*
G01X11786Y25815D01*
G01X11786Y25815D01*
G01X11794Y25815D01*
G01X11802Y25814D01*
G01X11810Y25812D01*
G01X11817Y25809D01*
G01X11817Y25809D01*
G01X11822Y25806D01*
G01X11827Y25802D01*
G01X11832Y25798D01*
G01X11836Y25793D01*
G01X11836Y25793D01*
G01X11838Y25788D01*
G01X11840Y25783D01*
G01X11841Y25777D01*
G01X11842Y25771D01*
G01X11842Y25771D01*
G01X11841Y25764D01*
G01X11840Y25757D01*
G01X11838Y25751D01*
G01X11835Y25745D01*
G01X11835Y25745D01*
G01X11830Y25740D01*
G01X11824Y25734D01*
G01X11817Y25729D01*
G01X11809Y25723D01*
G01X11809Y25723D01*
G01X11799Y25717D01*
G01X11787Y25710D01*
G01X11773Y25702D01*
G01X11757Y25694D01*
G37*
G36*
G01X11706Y25770D02*
G01X11706Y25770D01*
G01X11706Y25770D01*
G01X11706Y25771D01*
G01X11705Y25771D01*
G01X11705Y25771D01*
G01X11705Y25771D01*
G01X11705Y25771D01*
G01X11704Y25771D01*
G01X11703Y25771D01*
G01X11703Y25770D01*
G01X11702Y25769D01*
G01X11702Y25769D01*
G01X11701Y25769D01*
G01X11700Y25768D01*
G01X11699Y25768D01*
G01X11699Y25767D01*
G01X11700Y25765D01*
G01X11706Y25769D01*
G01X11706Y25770D01*
G37*
G36*
G01X11697Y25769D02*
G01X11697Y25769D01*
G01X11697Y25769D01*
G01X11696Y25768D01*
G01X11695Y25767D01*
G01X11695Y25766D01*
G01X11695Y25765D01*
G01X11695Y25765D01*
G01X11695Y25765D01*
G01X11695Y25765D01*
G01X11695Y25765D01*
G01X11695Y25765D01*
G01X11695Y25765D01*
G01X11695Y25765D01*
G01X11696Y25766D01*
G01X11697Y25766D01*
G01X11699Y25767D01*
G01X11697Y25769D01*
G37*
G36*
G01X11890Y25560D02*
G01X11890Y25560D01*
G01X11890Y25560D01*
G01X11890Y25560D01*
G01X11890Y25560D01*
G01X11890Y25560D01*
G01X11891Y25560D01*
G01X11891Y25560D01*
G01X11891Y25560D01*
G01X11892Y25560D01*
G01X11893Y25561D01*
G01X11894Y25561D01*
G01X11894Y25561D01*
G01X11895Y25562D01*
G01X11896Y25562D01*
G01X11897Y25563D01*
G01X11898Y25563D01*
G01X11897Y25565D01*
G01X11891Y25561D01*
G01X11890Y25560D01*
G37*
G36*
G01X11899Y25561D02*
G01X11899Y25561D01*
G01X11899Y25561D01*
G01X11900Y25562D01*
G01X11901Y25563D01*
G01X11901Y25564D01*
G01X11902Y25564D01*
G01X11902Y25564D01*
G01X11902Y25564D01*
G01X11902Y25564D01*
G01X11902Y25564D01*
G01X11902Y25564D01*
G01X11902Y25564D01*
G01X11902Y25564D01*
G01X11902Y25564D01*
G01X11902Y25564D01*
G01X11902Y25564D01*
G01X11898Y25563D01*
G01X11899Y25561D01*
G37*
G36*
G01X11577Y25460D02*
G01X11577Y25460D01*
G01X11577Y25520D01*
G01X11499Y25520D01*
G01X11499Y25804D01*
G01X11573Y25804D01*
G01X11573Y25865D01*
G01X11348Y25865D01*
G01X11348Y25804D01*
G01X11426Y25804D01*
G01X11426Y25520D01*
G01X11344Y25520D01*
G01X11344Y25460D01*
G01X11577Y25460D01*
G37*
G36*
G01X11136Y25448D02*
G01X11136Y25448D01*
G01X11136Y25448D01*
G01X11159Y25450D01*
G01X11180Y25455D01*
G01X11200Y25463D01*
G01X11218Y25474D01*
G01X11218Y25474D01*
G01X11234Y25488D01*
G01X11248Y25505D01*
G01X11260Y25525D01*
G01X11271Y25548D01*
G01X11271Y25548D01*
G01X11284Y25601D01*
G01X11289Y25663D01*
G01X11289Y25663D01*
G01X11284Y25725D01*
G01X11271Y25777D01*
G01X11271Y25777D01*
G01X11260Y25800D01*
G01X11248Y25819D01*
G01X11234Y25836D01*
G01X11218Y25850D01*
G01X11218Y25850D01*
G01X11200Y25861D01*
G01X11180Y25869D01*
G01X11159Y25874D01*
G01X11136Y25875D01*
G01X11136Y25875D01*
G01X11112Y25874D01*
G01X11091Y25869D01*
G01X11071Y25861D01*
G01X11053Y25850D01*
G01X11053Y25850D01*
G01X11037Y25836D01*
G01X11023Y25819D01*
G01X11011Y25800D01*
G01X11001Y25777D01*
G01X11001Y25777D01*
G01X10986Y25725D01*
G01X10982Y25663D01*
G01X10982Y25663D01*
G01X10986Y25601D01*
G01X11001Y25548D01*
G01X11001Y25548D01*
G01X11011Y25525D01*
G01X11023Y25505D01*
G01X11037Y25488D01*
G01X11053Y25474D01*
G01X11053Y25474D01*
G01X11071Y25463D01*
G01X11091Y25455D01*
G01X11112Y25450D01*
G01X11136Y25448D01*
G37*
G36*
G01X10954Y25865D02*
G01X10954Y25865D01*
G01X10865Y25865D01*
G01X10737Y25575D01*
G01X10737Y25865D01*
G01X10666Y25865D01*
G01X10666Y25857D01*
G01X10666Y25857D01*
G01X10667Y25855D01*
G01X10669Y25854D01*
G01X10670Y25851D01*
G01X10671Y25849D01*
G01X10671Y25849D01*
G01X10671Y25846D01*
G01X10671Y25843D01*
G01X10671Y25839D01*
G01X10671Y25834D01*
G01X10671Y25460D01*
G01X10752Y25460D01*
G01X10889Y25766D01*
G01X10889Y25460D01*
G01X10954Y25460D01*
G01X10954Y25865D01*
G37*
G36*
G01X10190Y25460D02*
G01X10190Y25460D01*
G01X10190Y25782D01*
G01X10259Y25761D01*
G01X10277Y25806D01*
G01X10167Y25865D01*
G01X10118Y25865D01*
G01X10118Y25460D01*
G01X10190Y25460D01*
G37*
G36*
G01X9525Y25654D02*
G01X9525Y25654D01*
G01X9525Y25654D01*
G01X9531Y25654D01*
G01X9536Y25656D01*
G01X9542Y25657D01*
G01X9548Y25660D01*
G01X9548Y25660D01*
G01X9553Y25663D01*
G01X9558Y25667D01*
G01X9562Y25671D01*
G01X9566Y25676D01*
G01X9566Y25676D01*
G01X9569Y25682D01*
G01X9571Y25687D01*
G01X9572Y25693D01*
G01X9573Y25699D01*
G01X9573Y25699D01*
G01X9572Y25705D01*
G01X9571Y25710D01*
G01X9569Y25715D01*
G01X9566Y25720D01*
G01X9566Y25720D01*
G01X9562Y25725D01*
G01X9558Y25730D01*
G01X9553Y25734D01*
G01X9548Y25737D01*
G01X9548Y25737D01*
G01X9542Y25740D01*
G01X9536Y25742D01*
G01X9531Y25743D01*
G01X9525Y25743D01*
G01X9525Y25743D01*
G01X9519Y25743D01*
G01X9513Y25742D01*
G01X9507Y25740D01*
G01X9502Y25737D01*
G01X9502Y25737D01*
G01X9496Y25734D01*
G01X9491Y25730D01*
G01X9486Y25726D01*
G01X9483Y25721D01*
G01X9483Y25721D01*
G01X9480Y25716D01*
G01X9477Y25711D01*
G01X9476Y25705D01*
G01X9476Y25699D01*
G01X9476Y25699D01*
G01X9476Y25693D01*
G01X9477Y25687D01*
G01X9479Y25682D01*
G01X9482Y25676D01*
G01X9482Y25676D01*
G01X9485Y25671D01*
G01X9490Y25667D01*
G01X9494Y25663D01*
G01X9500Y25660D01*
G01X9500Y25660D01*
G01X9506Y25657D01*
G01X9512Y25656D01*
G01X9518Y25654D01*
G01X9525Y25654D01*
G37*
G36*
G01X9525Y25451D02*
G01X9525Y25451D01*
G01X9525Y25451D01*
G01X9531Y25451D01*
G01X9537Y25453D01*
G01X9543Y25454D01*
G01X9549Y25457D01*
G01X9549Y25457D01*
G01X9554Y25460D01*
G01X9558Y25464D01*
G01X9562Y25468D01*
G01X9566Y25473D01*
G01X9566Y25473D01*
G01X9569Y25478D01*
G01X9571Y25484D01*
G01X9572Y25489D01*
G01X9573Y25495D01*
G01X9573Y25495D01*
G01X9572Y25501D01*
G01X9571Y25507D01*
G01X9569Y25513D01*
G01X9566Y25518D01*
G01X9566Y25518D01*
G01X9562Y25523D01*
G01X9558Y25527D01*
G01X9553Y25531D01*
G01X9548Y25534D01*
G01X9548Y25534D01*
G01X9542Y25537D01*
G01X9536Y25539D01*
G01X9531Y25540D01*
G01X9525Y25540D01*
G01X9525Y25540D01*
G01X9519Y25540D01*
G01X9513Y25539D01*
G01X9507Y25537D01*
G01X9502Y25534D01*
G01X9502Y25534D01*
G01X9496Y25531D01*
G01X9491Y25527D01*
G01X9486Y25523D01*
G01X9483Y25518D01*
G01X9483Y25518D01*
G01X9480Y25513D01*
G01X9477Y25507D01*
G01X9476Y25501D01*
G01X9476Y25495D01*
G01X9476Y25495D01*
G01X9476Y25489D01*
G01X9477Y25484D01*
G01X9479Y25478D01*
G01X9482Y25473D01*
G01X9482Y25473D01*
G01X9485Y25468D01*
G01X9490Y25464D01*
G01X9494Y25460D01*
G01X9500Y25457D01*
G01X9500Y25457D01*
G01X9505Y25454D01*
G01X9511Y25453D01*
G01X9518Y25451D01*
G01X9525Y25451D01*
G37*
G36*
G01X8996Y25865D02*
G01X8996Y25865D01*
G01X8868Y25865D01*
G01X8868Y25865D01*
G01X8804Y25857D01*
G01X8761Y25833D01*
G01X8761Y25833D01*
G01X8734Y25795D01*
G01X8726Y25744D01*
G01X8726Y25744D01*
G01X8726Y25733D01*
G01X8728Y25722D01*
G01X8731Y25711D01*
G01X8736Y25699D01*
G01X8736Y25699D01*
G01X8741Y25688D01*
G01X8747Y25678D01*
G01X8755Y25669D01*
G01X8763Y25660D01*
G01X8763Y25660D01*
G01X8772Y25652D01*
G01X8782Y25646D01*
G01X8792Y25640D01*
G01X8804Y25636D01*
G01X8709Y25460D01*
G01X8791Y25460D01*
G01X8874Y25627D01*
G01X8922Y25627D01*
G01X8922Y25460D01*
G01X8996Y25460D01*
G01X8996Y25865D01*
G37*
G36*
G01X8537Y25448D02*
G01X8537Y25448D01*
G01X8537Y25448D01*
G01X8560Y25450D01*
G01X8581Y25455D01*
G01X8601Y25463D01*
G01X8620Y25474D01*
G01X8620Y25474D01*
G01X8636Y25488D01*
G01X8650Y25505D01*
G01X8662Y25525D01*
G01X8672Y25548D01*
G01X8672Y25548D01*
G01X8685Y25601D01*
G01X8690Y25663D01*
G01X8690Y25663D01*
G01X8685Y25725D01*
G01X8672Y25777D01*
G01X8672Y25777D01*
G01X8662Y25800D01*
G01X8650Y25819D01*
G01X8636Y25836D01*
G01X8620Y25850D01*
G01X8620Y25850D01*
G01X8601Y25861D01*
G01X8581Y25869D01*
G01X8560Y25874D01*
G01X8537Y25875D01*
G01X8537Y25875D01*
G01X8513Y25874D01*
G01X8492Y25869D01*
G01X8472Y25861D01*
G01X8455Y25850D01*
G01X8455Y25850D01*
G01X8439Y25836D01*
G01X8424Y25819D01*
G01X8412Y25800D01*
G01X8402Y25777D01*
G01X8402Y25777D01*
G01X8388Y25725D01*
G01X8384Y25663D01*
G01X8384Y25663D01*
G01X8388Y25601D01*
G01X8402Y25548D01*
G01X8402Y25548D01*
G01X8412Y25525D01*
G01X8424Y25505D01*
G01X8439Y25488D01*
G01X8455Y25474D01*
G01X8455Y25474D01*
G01X8472Y25463D01*
G01X8492Y25455D01*
G01X8513Y25450D01*
G01X8537Y25448D01*
G37*
G36*
G01X8215Y25451D02*
G01X8215Y25451D01*
G01X8215Y25451D01*
G01X8274Y25461D01*
G01X8317Y25491D01*
G01X8317Y25491D01*
G01X8344Y25539D01*
G01X8353Y25603D01*
G01X8353Y25865D01*
G01X8275Y25865D01*
G01X8275Y25857D01*
G01X8275Y25857D01*
G01X8276Y25855D01*
G01X8277Y25854D01*
G01X8278Y25851D01*
G01X8279Y25849D01*
G01X8279Y25849D01*
G01X8279Y25846D01*
G01X8279Y25843D01*
G01X8280Y25839D01*
G01X8280Y25834D01*
G01X8280Y25602D01*
G01X8280Y25602D01*
G01X8279Y25581D01*
G01X8276Y25563D01*
G01X8271Y25548D01*
G01X8265Y25535D01*
G01X8265Y25535D01*
G01X8256Y25525D01*
G01X8244Y25517D01*
G01X8230Y25513D01*
G01X8214Y25511D01*
G01X8214Y25511D01*
G01X8197Y25513D01*
G01X8183Y25517D01*
G01X8171Y25525D01*
G01X8163Y25535D01*
G01X8163Y25535D01*
G01X8156Y25548D01*
G01X8151Y25564D01*
G01X8148Y25583D01*
G01X8147Y25604D01*
G01X8147Y25865D01*
G01X8076Y25865D01*
G01X8076Y25605D01*
G01X8076Y25605D01*
G01X8085Y25538D01*
G01X8113Y25489D01*
G01X8113Y25489D01*
G01X8157Y25461D01*
G01X8215Y25451D01*
G37*
G36*
G01X8031Y25865D02*
G01X8031Y25865D01*
G01X7942Y25865D01*
G01X7813Y25575D01*
G01X7813Y25865D01*
G01X7743Y25865D01*
G01X7743Y25857D01*
G01X7743Y25857D01*
G01X7744Y25855D01*
G01X7746Y25854D01*
G01X7746Y25851D01*
G01X7747Y25849D01*
G01X7747Y25849D01*
G01X7747Y25846D01*
G01X7747Y25843D01*
G01X7748Y25839D01*
G01X7748Y25834D01*
G01X7748Y25460D01*
G01X7828Y25460D01*
G01X7966Y25766D01*
G01X7966Y25460D01*
G01X8031Y25460D01*
G01X8031Y25865D01*
G37*
G36*
G01X7699Y25865D02*
G01X7699Y25865D01*
G01X7594Y25865D01*
G01X7594Y25865D01*
G01X7569Y25864D01*
G01X7547Y25862D01*
G01X7528Y25857D01*
G01X7512Y25851D01*
G01X7512Y25851D01*
G01X7497Y25843D01*
G01X7483Y25833D01*
G01X7470Y25822D01*
G01X7459Y25808D01*
G01X7459Y25808D01*
G01X7441Y25778D01*
G01X7428Y25743D01*
G01X7420Y25704D01*
G01X7418Y25660D01*
G01X7418Y25660D01*
G01X7420Y25615D01*
G01X7429Y25575D01*
G01X7442Y25541D01*
G01X7462Y25512D01*
G01X7462Y25512D01*
G01X7487Y25489D01*
G01X7519Y25473D01*
G01X7557Y25463D01*
G01X7602Y25460D01*
G01X7699Y25460D01*
G01X7699Y25865D01*
G37*
G36*
G01X6942Y25460D02*
G01X6942Y25460D01*
G01X6942Y25782D01*
G01X7011Y25761D01*
G01X7029Y25806D01*
G01X6919Y25865D01*
G01X6870Y25865D01*
G01X6870Y25460D01*
G01X6942Y25460D01*
G37*

%LPC*%
G36*
G01X12111Y25689D02*
G01X12111Y25689D01*
G01X12111Y25689D01*
G01X12096Y25690D01*
G01X12083Y25693D01*
G01X12073Y25698D01*
G01X12064Y25704D01*
G01X12064Y25704D01*
G01X12057Y25712D01*
G01X12052Y25722D01*
G01X12050Y25732D01*
G01X12049Y25744D01*
G01X12049Y25744D01*
G01X12050Y25757D01*
G01X12052Y25769D01*
G01X12057Y25778D01*
G01X12064Y25786D01*
G01X12064Y25786D01*
G01X12072Y25792D01*
G01X12083Y25797D01*
G01X12096Y25799D01*
G01X12111Y25800D01*
G01X12170Y25800D01*
G01X12170Y25689D01*
G01X12111Y25689D01*
G37*
G36*
G01X11136Y25507D02*
G01X11136Y25507D01*
G01X11136Y25507D01*
G01X11124Y25508D01*
G01X11113Y25512D01*
G01X11103Y25518D01*
G01X11094Y25526D01*
G01X11094Y25526D01*
G01X11085Y25537D01*
G01X11078Y25550D01*
G01X11072Y25566D01*
G01X11067Y25583D01*
G01X11067Y25583D01*
G01X11063Y25602D01*
G01X11060Y25622D01*
G01X11058Y25644D01*
G01X11058Y25667D01*
G01X11058Y25667D01*
G01X11058Y25689D01*
G01X11060Y25709D01*
G01X11063Y25728D01*
G01X11067Y25746D01*
G01X11067Y25746D01*
G01X11072Y25762D01*
G01X11078Y25776D01*
G01X11085Y25788D01*
G01X11094Y25798D01*
G01X11094Y25798D01*
G01X11103Y25806D01*
G01X11113Y25812D01*
G01X11124Y25816D01*
G01X11136Y25817D01*
G01X11136Y25817D01*
G01X11147Y25816D01*
G01X11157Y25812D01*
G01X11167Y25806D01*
G01X11177Y25798D01*
G01X11177Y25798D01*
G01X11185Y25788D01*
G01X11192Y25776D01*
G01X11199Y25762D01*
G01X11204Y25746D01*
G01X11204Y25746D01*
G01X11208Y25728D01*
G01X11211Y25709D01*
G01X11213Y25689D01*
G01X11214Y25667D01*
G01X11214Y25667D01*
G01X11213Y25644D01*
G01X11211Y25622D01*
G01X11208Y25602D01*
G01X11204Y25583D01*
G01X11204Y25583D01*
G01X11199Y25566D01*
G01X11192Y25550D01*
G01X11185Y25537D01*
G01X11177Y25526D01*
G01X11177Y25526D01*
G01X11168Y25518D01*
G01X11158Y25512D01*
G01X11147Y25508D01*
G01X11136Y25507D01*
G37*
G36*
G01X8863Y25689D02*
G01X8863Y25689D01*
G01X8863Y25689D01*
G01X8848Y25690D01*
G01X8835Y25693D01*
G01X8825Y25698D01*
G01X8816Y25704D01*
G01X8816Y25704D01*
G01X8809Y25712D01*
G01X8804Y25722D01*
G01X8802Y25732D01*
G01X8801Y25744D01*
G01X8801Y25744D01*
G01X8802Y25757D01*
G01X8804Y25769D01*
G01X8809Y25778D01*
G01X8816Y25786D01*
G01X8816Y25786D01*
G01X8824Y25792D01*
G01X8835Y25797D01*
G01X8848Y25799D01*
G01X8863Y25800D01*
G01X8922Y25800D01*
G01X8922Y25689D01*
G01X8863Y25689D01*
G37*
G36*
G01X8537Y25507D02*
G01X8537Y25507D01*
G01X8537Y25507D01*
G01X8525Y25508D01*
G01X8514Y25512D01*
G01X8505Y25518D01*
G01X8496Y25526D01*
G01X8496Y25526D01*
G01X8487Y25537D01*
G01X8480Y25550D01*
G01X8474Y25566D01*
G01X8469Y25583D01*
G01X8469Y25583D01*
G01X8464Y25602D01*
G01X8461Y25622D01*
G01X8459Y25644D01*
G01X8459Y25667D01*
G01X8459Y25667D01*
G01X8459Y25689D01*
G01X8461Y25709D01*
G01X8464Y25728D01*
G01X8469Y25746D01*
G01X8469Y25746D01*
G01X8474Y25762D01*
G01X8480Y25776D01*
G01X8487Y25788D01*
G01X8496Y25798D01*
G01X8496Y25798D01*
G01X8505Y25806D01*
G01X8514Y25812D01*
G01X8525Y25816D01*
G01X8537Y25817D01*
G01X8537Y25817D01*
G01X8548Y25816D01*
G01X8559Y25812D01*
G01X8569Y25806D01*
G01X8579Y25798D01*
G01X8579Y25798D01*
G01X8587Y25788D01*
G01X8594Y25776D01*
G01X8601Y25762D01*
G01X8606Y25746D01*
G01X8606Y25746D01*
G01X8610Y25728D01*
G01X8612Y25709D01*
G01X8614Y25689D01*
G01X8615Y25667D01*
G01X8615Y25667D01*
G01X8614Y25644D01*
G01X8612Y25622D01*
G01X8610Y25602D01*
G01X8606Y25583D01*
G01X8606Y25583D01*
G01X8601Y25566D01*
G01X8594Y25550D01*
G01X8587Y25537D01*
G01X8579Y25526D01*
G01X8579Y25526D01*
G01X8569Y25518D01*
G01X8559Y25512D01*
G01X8548Y25508D01*
G01X8537Y25507D01*
G37*
G36*
G01X7603Y25517D02*
G01X7603Y25517D01*
G01X7603Y25517D01*
G01X7553Y25526D01*
G01X7519Y25553D01*
G01X7519Y25553D01*
G01X7498Y25597D01*
G01X7491Y25658D01*
G01X7491Y25658D01*
G01X7494Y25703D01*
G01X7502Y25739D01*
G01X7517Y25768D01*
G01X7537Y25788D01*
G01X7564Y25800D01*
G01X7596Y25804D01*
G01X7628Y25804D01*
G01X7628Y25517D01*
G01X7603Y25517D01*
G37*

%LPD*%

%LPD*%
G36*
G01X14535Y18528D02*
G01X14535Y18528D01*
G01X14535Y18939D01*
G01X14420Y18939D01*
G01X14420Y18939D01*
G01X14375Y18936D01*
G01X14336Y18927D01*
G01X14300Y18911D01*
G01X14270Y18890D01*
G01X14270Y18890D01*
G01X14246Y18862D01*
G01X14228Y18827D01*
G01X14218Y18784D01*
G01X14214Y18735D01*
G01X14214Y18735D01*
G01X14218Y18685D01*
G01X14228Y18643D01*
G01X14245Y18607D01*
G01X14269Y18579D01*
G01X14269Y18579D01*
G01X14299Y18557D01*
G01X14333Y18541D01*
G01X14372Y18531D01*
G01X14415Y18528D01*
G01X14535Y18528D01*
G37*
G36*
G01X14135Y18528D02*
G01X14135Y18528D01*
G01X14135Y18939D01*
G01X13878Y18939D01*
G01X13878Y18861D01*
G01X14043Y18861D01*
G01X14043Y18778D01*
G01X13903Y18778D01*
G01X13903Y18701D01*
G01X14043Y18701D01*
G01X14043Y18606D01*
G01X13872Y18606D01*
G01X13872Y18528D01*
G01X14135Y18528D01*
G37*
G36*
G01X13665Y18520D02*
G01X13665Y18520D01*
G01X13665Y18520D01*
G01X13685Y18521D01*
G01X13705Y18524D01*
G01X13726Y18529D01*
G01X13746Y18536D01*
G01X13746Y18536D01*
G01X13766Y18544D01*
G01X13784Y18555D01*
G01X13801Y18566D01*
G01X13817Y18580D01*
G01X13764Y18643D01*
G01X13764Y18643D01*
G01X13753Y18634D01*
G01X13741Y18626D01*
G01X13728Y18618D01*
G01X13715Y18612D01*
G01X13715Y18612D01*
G01X13702Y18607D01*
G01X13688Y18603D01*
G01X13675Y18601D01*
G01X13662Y18600D01*
G01X13662Y18600D01*
G01X13637Y18602D01*
G01X13619Y18610D01*
G01X13609Y18623D01*
G01X13605Y18640D01*
G01X13605Y18640D01*
G01X13606Y18649D01*
G01X13609Y18657D01*
G01X13614Y18664D01*
G01X13621Y18669D01*
G01X13621Y18669D01*
G01X13630Y18674D01*
G01X13640Y18678D01*
G01X13651Y18684D01*
G01X13664Y18689D01*
G01X13718Y18712D01*
G01X13718Y18712D01*
G01X13733Y18719D01*
G01X13748Y18728D01*
G01X13762Y18739D01*
G01X13775Y18752D01*
G01X13775Y18752D01*
G01X13786Y18767D01*
G01X13794Y18784D01*
G01X13799Y18803D01*
G01X13800Y18824D01*
G01X13800Y18824D01*
G01X13790Y18871D01*
G01X13759Y18911D01*
G01X13759Y18911D01*
G01X13712Y18937D01*
G01X13654Y18946D01*
G01X13654Y18946D01*
G01X13637Y18945D01*
G01X13619Y18943D01*
G01X13602Y18938D01*
G01X13584Y18932D01*
G01X13584Y18932D01*
G01X13567Y18925D01*
G01X13551Y18915D01*
G01X13536Y18905D01*
G01X13522Y18892D01*
G01X13569Y18834D01*
G01X13569Y18834D01*
G01X13579Y18841D01*
G01X13589Y18847D01*
G01X13600Y18853D01*
G01X13610Y18858D01*
G01X13610Y18858D01*
G01X13620Y18861D01*
G01X13631Y18864D01*
G01X13642Y18865D01*
G01X13654Y18866D01*
G01X13654Y18866D01*
G01X13665Y18865D01*
G01X13676Y18864D01*
G01X13684Y18861D01*
G01X13692Y18857D01*
G01X13692Y18857D01*
G01X13699Y18851D01*
G01X13703Y18845D01*
G01X13706Y18838D01*
G01X13707Y18829D01*
G01X13707Y18829D01*
G01X13706Y18820D01*
G01X13703Y18813D01*
G01X13697Y18806D01*
G01X13689Y18801D01*
G01X13689Y18801D01*
G01X13680Y18796D01*
G01X13669Y18791D01*
G01X13657Y18786D01*
G01X13644Y18781D01*
G01X13591Y18759D01*
G01X13591Y18759D01*
G01X13574Y18751D01*
G01X13558Y18741D01*
G01X13544Y18730D01*
G01X13532Y18718D01*
G01X13532Y18718D01*
G01X13522Y18703D01*
G01X13516Y18687D01*
G01X13511Y18669D01*
G01X13510Y18648D01*
G01X13510Y18648D01*
G01X13520Y18600D01*
G01X13551Y18559D01*
G01X13551Y18559D01*
G01X13600Y18530D01*
G01X13665Y18520D01*
G37*
G36*
G01X13440Y18528D02*
G01X13440Y18528D01*
G01X13440Y18939D01*
G01X13347Y18939D01*
G01X13347Y18528D01*
G01X13440Y18528D01*
G37*
G36*
G01X13069Y18520D02*
G01X13069Y18520D01*
G01X13069Y18520D01*
G01X13110Y18523D01*
G01X13147Y18534D01*
G01X13181Y18550D01*
G01X13212Y18574D01*
G01X13212Y18574D01*
G01X13237Y18604D01*
G01X13256Y18640D01*
G01X13266Y18683D01*
G01X13270Y18731D01*
G01X13270Y18731D01*
G01X13263Y18794D01*
G01X13243Y18847D01*
G01X13243Y18847D01*
G01X13211Y18890D01*
G01X13170Y18921D01*
G01X13170Y18921D01*
G01X13122Y18940D01*
G01X13070Y18946D01*
G01X13070Y18946D01*
G01X13049Y18945D01*
G01X13029Y18942D01*
G01X13010Y18937D01*
G01X12993Y18930D01*
G01X12993Y18930D01*
G01X12978Y18922D01*
G01X12964Y18913D01*
G01X12952Y18903D01*
G01X12941Y18893D01*
G01X12989Y18834D01*
G01X12989Y18834D01*
G01X12997Y18840D01*
G01X13005Y18846D01*
G01X13014Y18852D01*
G01X13022Y18857D01*
G01X13022Y18857D01*
G01X13032Y18861D01*
G01X13042Y18864D01*
G01X13054Y18865D01*
G01X13067Y18866D01*
G01X13067Y18866D01*
G01X13090Y18864D01*
G01X13110Y18857D01*
G01X13129Y18846D01*
G01X13145Y18831D01*
G01X13145Y18831D01*
G01X13168Y18789D01*
G01X13175Y18734D01*
G01X13175Y18734D01*
G01X13168Y18677D01*
G01X13146Y18635D01*
G01X13146Y18635D01*
G01X13111Y18609D01*
G01X13060Y18600D01*
G01X13060Y18600D01*
G01X13046Y18601D01*
G01X13034Y18603D01*
G01X13024Y18607D01*
G01X13015Y18613D01*
G01X13015Y18684D01*
G01X13084Y18684D01*
G01X13084Y18759D01*
G01X12934Y18759D01*
G01X12934Y18570D01*
G01X12934Y18570D01*
G01X12946Y18560D01*
G01X12959Y18551D01*
G01X12974Y18542D01*
G01X12991Y18535D01*
G01X12991Y18535D01*
G01X13009Y18528D01*
G01X13028Y18524D01*
G01X13048Y18521D01*
G01X13069Y18520D01*
G37*
G36*
G01X12849Y18528D02*
G01X12849Y18528D01*
G01X12849Y18939D01*
G01X12753Y18939D01*
G01X12646Y18735D01*
G01X12606Y18644D01*
G01X12604Y18644D01*
G01X12604Y18644D01*
G01X12605Y18661D01*
G01X12607Y18679D01*
G01X12608Y18697D01*
G01X12610Y18717D01*
G01X12610Y18717D01*
G01X12612Y18737D01*
G01X12614Y18756D01*
G01X12615Y18775D01*
G01X12615Y18794D01*
G01X12615Y18939D01*
G01X12527Y18939D01*
G01X12527Y18528D01*
G01X12622Y18528D01*
G01X12729Y18733D01*
G01X12769Y18822D01*
G01X12772Y18822D01*
G01X12772Y18822D01*
G01X12770Y18805D01*
G01X12769Y18787D01*
G01X12766Y18768D01*
G01X12764Y18749D01*
G01X12764Y18749D01*
G01X12762Y18730D01*
G01X12761Y18711D01*
G01X12760Y18692D01*
G01X12760Y18674D01*
G01X12760Y18528D01*
G01X12849Y18528D01*
G37*
G36*
G01X12430Y18528D02*
G01X12430Y18528D01*
G01X12430Y18939D01*
G01X12173Y18939D01*
G01X12173Y18861D01*
G01X12337Y18861D01*
G01X12337Y18778D01*
G01X12197Y18778D01*
G01X12197Y18701D01*
G01X12337Y18701D01*
G01X12337Y18606D01*
G01X12166Y18606D01*
G01X12166Y18528D01*
G01X12430Y18528D01*
G37*
G36*
G01X12084Y18528D02*
G01X12084Y18528D01*
G01X12084Y18939D01*
G01X11969Y18939D01*
G01X11969Y18939D01*
G01X11924Y18936D01*
G01X11885Y18927D01*
G01X11849Y18911D01*
G01X11819Y18890D01*
G01X11819Y18890D01*
G01X11795Y18862D01*
G01X11777Y18827D01*
G01X11767Y18784D01*
G01X11763Y18735D01*
G01X11763Y18735D01*
G01X11767Y18685D01*
G01X11777Y18643D01*
G01X11794Y18607D01*
G01X11818Y18579D01*
G01X11818Y18579D01*
G01X11848Y18557D01*
G01X11882Y18541D01*
G01X11921Y18531D01*
G01X11964Y18528D01*
G01X12084Y18528D01*
G37*
G36*
G01X11558Y18528D02*
G01X11558Y18528D01*
G01X11558Y18939D01*
G01X11418Y18939D01*
G01X11418Y18939D01*
G01X11359Y18934D01*
G01X11311Y18917D01*
G01X11311Y18917D01*
G01X11278Y18886D01*
G01X11267Y18837D01*
G01X11267Y18837D01*
G01X11268Y18823D01*
G01X11271Y18809D01*
G01X11275Y18796D01*
G01X11281Y18783D01*
G01X11281Y18783D01*
G01X11289Y18771D01*
G01X11298Y18761D01*
G01X11308Y18754D01*
G01X11320Y18748D01*
G01X11320Y18745D01*
G01X11320Y18745D01*
G01X11306Y18740D01*
G01X11292Y18733D01*
G01X11280Y18725D01*
G01X11268Y18714D01*
G01X11268Y18714D01*
G01X11259Y18701D01*
G01X11252Y18686D01*
G01X11248Y18668D01*
G01X11247Y18649D01*
G01X11247Y18649D01*
G01X11259Y18594D01*
G01X11293Y18557D01*
G01X11293Y18557D01*
G01X11344Y18535D01*
G01X11406Y18528D01*
G01X11558Y18528D01*
G37*
G36*
G01X11118Y18528D02*
G01X11118Y18528D01*
G01X11118Y18674D01*
G01X11242Y18939D01*
G01X11143Y18939D01*
G01X11106Y18844D01*
G01X11106Y18844D01*
G01X11102Y18833D01*
G01X11097Y18821D01*
G01X11093Y18810D01*
G01X11089Y18799D01*
G01X11089Y18799D01*
G01X11085Y18788D01*
G01X11081Y18777D01*
G01X11077Y18765D01*
G01X11073Y18754D01*
G01X11070Y18754D01*
G01X11070Y18754D01*
G01X11066Y18765D01*
G01X11061Y18777D01*
G01X11057Y18788D01*
G01X11053Y18799D01*
G01X11053Y18799D01*
G01X11049Y18810D01*
G01X11044Y18821D01*
G01X11040Y18833D01*
G01X11036Y18844D01*
G01X10998Y18939D01*
G01X10901Y18939D01*
G01X11026Y18674D01*
G01X11026Y18528D01*
G01X11118Y18528D01*
G37*

%LPC*%
G36*
G01X14443Y18603D02*
G01X14443Y18603D01*
G01X14425Y18603D01*
G01X14425Y18603D01*
G01X14400Y18605D01*
G01X14378Y18610D01*
G01X14358Y18619D01*
G01X14341Y18632D01*
G01X14341Y18632D01*
G01X14317Y18673D01*
G01X14309Y18735D01*
G01X14309Y18735D01*
G01X14317Y18797D01*
G01X14341Y18836D01*
G01X14341Y18836D01*
G01X14358Y18848D01*
G01X14378Y18857D01*
G01X14400Y18862D01*
G01X14425Y18864D01*
G01X14443Y18864D01*
G01X14443Y18603D01*
G37*
G36*
G01X11992Y18603D02*
G01X11992Y18603D01*
G01X11974Y18603D01*
G01X11974Y18603D01*
G01X11949Y18605D01*
G01X11927Y18610D01*
G01X11907Y18619D01*
G01X11890Y18632D01*
G01X11890Y18632D01*
G01X11866Y18673D01*
G01X11858Y18735D01*
G01X11858Y18735D01*
G01X11866Y18797D01*
G01X11890Y18836D01*
G01X11890Y18836D01*
G01X11907Y18848D01*
G01X11927Y18857D01*
G01X11949Y18862D01*
G01X11974Y18864D01*
G01X11992Y18864D01*
G01X11992Y18603D01*
G37*
G36*
G01X11466Y18774D02*
G01X11466Y18774D01*
G01X11422Y18774D01*
G01X11422Y18774D01*
G01X11406Y18775D01*
G01X11393Y18778D01*
G01X11382Y18782D01*
G01X11373Y18788D01*
G01X11373Y18788D01*
G01X11367Y18795D01*
G01X11362Y18803D01*
G01X11359Y18813D01*
G01X11358Y18823D01*
G01X11358Y18823D01*
G01X11374Y18856D01*
G01X11422Y18867D01*
G01X11466Y18867D01*
G01X11466Y18774D01*
G37*
G36*
G01X11466Y18600D02*
G01X11466Y18600D01*
G01X11414Y18600D01*
G01X11414Y18600D01*
G01X11356Y18614D01*
G01X11337Y18655D01*
G01X11337Y18655D01*
G01X11356Y18693D01*
G01X11414Y18706D01*
G01X11466Y18706D01*
G01X11466Y18600D01*
G37*

%LPD*%

%LPD*%
G36*
G01X14529Y17360D02*
G01X14529Y17360D01*
G01X14529Y17873D01*
G01X14206Y17873D01*
G01X14206Y17776D01*
G01X14414Y17776D01*
G01X14414Y17657D01*
G01X14236Y17657D01*
G01X14236Y17559D01*
G01X14414Y17559D01*
G01X14414Y17360D01*
G01X14529Y17360D01*
G37*
G36*
G01X13844Y17360D02*
G01X13844Y17360D01*
G01X13959Y17360D01*
G01X13959Y17873D01*
G01X13774Y17873D01*
G01X13774Y17873D01*
G01X13698Y17865D01*
G01X13634Y17839D01*
G01X13634Y17839D01*
G01X13609Y17819D01*
G01X13592Y17791D01*
G01X13581Y17756D01*
G01X13577Y17714D01*
G01X13577Y17714D01*
G01X13584Y17662D01*
G01X13602Y17621D01*
G01X13602Y17621D01*
G01X13616Y17604D01*
G01X13631Y17589D01*
G01X13649Y17576D01*
G01X13668Y17566D01*
G01X13551Y17360D01*
G01X13681Y17360D01*
G01X13780Y17545D01*
G01X13844Y17545D01*
G01X13844Y17360D01*
G37*
G36*
G01X13047Y17360D02*
G01X13047Y17360D01*
G01X13078Y17482D01*
G01X13235Y17482D01*
G01X13266Y17360D01*
G01X13384Y17360D01*
G01X13224Y17873D01*
G01X13084Y17873D01*
G01X12924Y17360D01*
G01X13047Y17360D01*
G37*
G36*
G01X12710Y17360D02*
G01X12710Y17360D01*
G01X12710Y17873D01*
G01X12534Y17873D01*
G01X12534Y17873D01*
G01X12494Y17871D01*
G01X12456Y17864D01*
G01X12422Y17853D01*
G01X12390Y17837D01*
G01X12390Y17837D01*
G01X12364Y17816D01*
G01X12345Y17787D01*
G01X12334Y17751D01*
G01X12330Y17708D01*
G01X12330Y17708D01*
G01X12334Y17666D01*
G01X12345Y17630D01*
G01X12364Y17600D01*
G01X12390Y17576D01*
G01X12390Y17576D01*
G01X12422Y17558D01*
G01X12456Y17545D01*
G01X12492Y17537D01*
G01X12531Y17534D01*
G01X12595Y17534D01*
G01X12595Y17360D01*
G01X12710Y17360D01*
G37*
G36*
G01X12084Y17360D02*
G01X12084Y17360D01*
G01X12084Y17873D01*
G01X11907Y17873D01*
G01X11907Y17873D01*
G01X11867Y17871D01*
G01X11829Y17864D01*
G01X11795Y17853D01*
G01X11763Y17837D01*
G01X11763Y17837D01*
G01X11737Y17816D01*
G01X11718Y17787D01*
G01X11707Y17751D01*
G01X11703Y17708D01*
G01X11703Y17708D01*
G01X11707Y17666D01*
G01X11718Y17630D01*
G01X11737Y17600D01*
G01X11763Y17576D01*
G01X11763Y17576D01*
G01X11795Y17558D01*
G01X11829Y17545D01*
G01X11865Y17537D01*
G01X11904Y17534D01*
G01X11968Y17534D01*
G01X11968Y17360D01*
G01X12084Y17360D01*
G37*
G36*
G01X11457Y17360D02*
G01X11457Y17360D01*
G01X11457Y17873D01*
G01X11136Y17873D01*
G01X11136Y17776D01*
G01X11341Y17776D01*
G01X11341Y17673D01*
G01X11166Y17673D01*
G01X11166Y17576D01*
G01X11341Y17576D01*
G01X11341Y17458D01*
G01X11128Y17458D01*
G01X11128Y17360D01*
G01X11457Y17360D01*
G37*
G36*
G01X11299Y17895D02*
G01X11299Y17895D01*
G01X11351Y17954D01*
G01X11216Y18064D01*
G01X11155Y17989D01*
G01X11299Y17895D01*
G37*
G36*
G01X10780Y17360D02*
G01X10780Y17360D01*
G01X10780Y17543D01*
G01X10935Y17873D01*
G01X10810Y17873D01*
G01X10765Y17755D01*
G01X10765Y17755D01*
G01X10760Y17741D01*
G01X10755Y17727D01*
G01X10749Y17713D01*
G01X10744Y17699D01*
G01X10744Y17699D01*
G01X10739Y17685D01*
G01X10734Y17671D01*
G01X10728Y17657D01*
G01X10723Y17642D01*
G01X10720Y17642D01*
G01X10720Y17642D01*
G01X10715Y17657D01*
G01X10709Y17671D01*
G01X10704Y17685D01*
G01X10698Y17699D01*
G01X10698Y17699D01*
G01X10693Y17713D01*
G01X10688Y17727D01*
G01X10683Y17741D01*
G01X10677Y17755D01*
G01X10630Y17873D01*
G01X10509Y17873D01*
G01X10664Y17543D01*
G01X10664Y17360D01*
G01X10780Y17360D01*
G37*
G36*
G01X10095Y17351D02*
G01X10095Y17351D01*
G01X10095Y17351D01*
G01X10142Y17355D01*
G01X10183Y17366D01*
G01X10218Y17384D01*
G01X10247Y17410D01*
G01X10247Y17410D01*
G01X10270Y17444D01*
G01X10287Y17487D01*
G01X10297Y17538D01*
G01X10300Y17598D01*
G01X10300Y17873D01*
G01X10184Y17873D01*
G01X10184Y17586D01*
G01X10184Y17586D01*
G01X10179Y17522D01*
G01X10161Y17480D01*
G01X10161Y17480D01*
G01X10149Y17467D01*
G01X10133Y17458D01*
G01X10116Y17453D01*
G01X10095Y17451D01*
G01X10095Y17451D01*
G01X10075Y17453D01*
G01X10057Y17458D01*
G01X10041Y17467D01*
G01X10028Y17480D01*
G01X10028Y17480D01*
G01X10010Y17522D01*
G01X10004Y17586D01*
G01X10004Y17873D01*
G01X9892Y17873D01*
G01X9892Y17598D01*
G01X9892Y17598D01*
G01X9896Y17538D01*
G01X9905Y17487D01*
G01X9922Y17444D01*
G01X9944Y17410D01*
G01X9944Y17410D01*
G01X9973Y17384D01*
G01X10008Y17366D01*
G01X10049Y17355D01*
G01X10095Y17351D01*
G37*
G36*
G01X9616Y17360D02*
G01X9616Y17360D01*
G01X9616Y17873D01*
G01X9489Y17873D01*
G01X9407Y17645D01*
G01X9407Y17645D01*
G01X9403Y17634D01*
G01X9400Y17623D01*
G01X9396Y17611D01*
G01X9392Y17599D01*
G01X9392Y17599D01*
G01X9388Y17587D01*
G01X9385Y17575D01*
G01X9381Y17563D01*
G01X9377Y17551D01*
G01X9373Y17551D01*
G01X9373Y17551D01*
G01X9370Y17563D01*
G01X9366Y17575D01*
G01X9363Y17587D01*
G01X9359Y17599D01*
G01X9359Y17599D01*
G01X9356Y17611D01*
G01X9352Y17623D01*
G01X9348Y17634D01*
G01X9344Y17645D01*
G01X9263Y17873D01*
G01X9137Y17873D01*
G01X9137Y17360D01*
G01X9243Y17360D01*
G01X9243Y17548D01*
G01X9243Y17548D01*
G01X9243Y17568D01*
G01X9242Y17589D01*
G01X9240Y17612D01*
G01X9237Y17636D01*
G01X9237Y17636D01*
G01X9235Y17660D01*
G01X9233Y17683D01*
G01X9230Y17704D01*
G01X9228Y17723D01*
G01X9231Y17723D01*
G01X9273Y17601D01*
G01X9346Y17405D01*
G01X9410Y17405D01*
G01X9483Y17601D01*
G01X9524Y17723D01*
G01X9527Y17723D01*
G01X9527Y17723D01*
G01X9525Y17704D01*
G01X9523Y17683D01*
G01X9521Y17660D01*
G01X9518Y17636D01*
G01X9518Y17636D01*
G01X9516Y17612D01*
G01X9514Y17589D01*
G01X9513Y17568D01*
G01X9512Y17548D01*
G01X9512Y17360D01*
G01X9616Y17360D01*
G37*

%LPC*%
G36*
G01X13844Y17637D02*
G01X13844Y17637D01*
G01X13784Y17637D01*
G01X13784Y17637D01*
G01X13743Y17642D01*
G01X13714Y17656D01*
G01X13696Y17680D01*
G01X13690Y17714D01*
G01X13690Y17714D01*
G01X13692Y17731D01*
G01X13696Y17746D01*
G01X13704Y17757D01*
G01X13714Y17766D01*
G01X13714Y17766D01*
G01X13728Y17773D01*
G01X13744Y17777D01*
G01X13763Y17780D01*
G01X13784Y17781D01*
G01X13844Y17781D01*
G01X13844Y17637D01*
G37*
G36*
G01X13199Y17620D02*
G01X13199Y17620D01*
G01X13211Y17573D01*
G01X13102Y17573D01*
G01X13114Y17620D01*
G01X13114Y17620D01*
G01X13120Y17639D01*
G01X13125Y17660D01*
G01X13130Y17680D01*
G01X13135Y17702D01*
G01X13135Y17702D01*
G01X13140Y17723D01*
G01X13145Y17744D01*
G01X13150Y17765D01*
G01X13155Y17785D01*
G01X13159Y17785D01*
G01X13159Y17785D01*
G01X13164Y17764D01*
G01X13169Y17744D01*
G01X13173Y17722D01*
G01X13178Y17701D01*
G01X13178Y17701D01*
G01X13183Y17680D01*
G01X13189Y17659D01*
G01X13194Y17639D01*
G01X13199Y17620D01*
G37*
G36*
G01X12595Y17626D02*
G01X12595Y17626D01*
G01X12538Y17626D01*
G01X12538Y17626D01*
G01X12497Y17631D01*
G01X12468Y17647D01*
G01X12450Y17672D01*
G01X12444Y17708D01*
G01X12444Y17708D01*
G01X12446Y17727D01*
G01X12451Y17742D01*
G01X12458Y17755D01*
G01X12469Y17765D01*
G01X12469Y17765D01*
G01X12483Y17772D01*
G01X12500Y17777D01*
G01X12519Y17780D01*
G01X12541Y17781D01*
G01X12595Y17781D01*
G01X12595Y17626D01*
G37*
G36*
G01X11968Y17626D02*
G01X11968Y17626D01*
G01X11911Y17626D01*
G01X11911Y17626D01*
G01X11870Y17631D01*
G01X11841Y17647D01*
G01X11823Y17672D01*
G01X11817Y17708D01*
G01X11817Y17708D01*
G01X11819Y17727D01*
G01X11824Y17742D01*
G01X11831Y17755D01*
G01X11842Y17765D01*
G01X11842Y17765D01*
G01X11856Y17772D01*
G01X11873Y17777D01*
G01X11892Y17780D01*
G01X11914Y17781D01*
G01X11968Y17781D01*
G01X11968Y17626D01*
G37*

%LPD*%
G36*
G01X6492Y26346D02*
G01X12917Y26346D01*
G01X12917Y26127D01*
G01X6492Y26127D01*
G01X6492Y26346D01*
G37*
G36*
G01X9138Y18315D02*
G01X14555Y18315D01*
G01X14555Y18221D01*
G01X9138Y18221D01*
G01X9138Y18315D01*
G37*

M00*
M02*