G04 ---------------------------- Layer name :INNER2*
G04 easyEDA 0.1*
G04 Scale: 100 percent, Rotated: No, Reflected: No *
G04 Dimensions in inches *
G04 leading zeros omitted , absolute positions ,2 integer and 4 * 
%FSLAX24Y24*%
%MOIN*%
G90*
G70D02*

%ADD11C,0.024400*%
%ADD12C,0.015748*%
%ADD13C,0.023620*%
%ADD14C,0.031496*%
%ADD15C,0.066929*%
%ADD17C,0.161420*%
%ADD19C,0.043307*%
%ADD20C,0.039370*%

%LPD*%
G36*
G01X2000Y16432D02*
G01X2000Y19278D01*
G01X2563Y19278D01*
G01X2576Y19255D01*
G01X2646Y19207D01*
G01X2730Y19198D01*
G01X2807Y19228D01*
G01X2853Y19278D01*
G01X4467Y19278D01*
G01X4503Y19261D01*
G01X4580Y19271D01*
G01X4586Y19278D01*
G01X5778Y19278D01*
G01X5813Y19261D01*
G01X5890Y19271D01*
G01X5896Y19278D01*
G01X7301Y19278D01*
G01X7301Y17100D01*
G01X4830Y17100D01*
G01X4850Y17117D01*
G01X4871Y17192D01*
G01X4850Y17265D01*
G01X4792Y17315D01*
G01X4715Y17326D01*
G01X4646Y17294D01*
G01X4605Y17230D01*
G01X4605Y17153D01*
G01X4640Y17100D01*
G01X3667Y17100D01*
G01X3551Y16984D01*
G01X3500Y16992D01*
G01X3378Y16971D01*
G01X3269Y16917D01*
G01X3182Y16830D01*
G01X3128Y16721D01*
G01X3107Y16600D01*
G01X3115Y16548D01*
G01X3000Y16432D01*
G01X2850Y16432D01*
G01X2850Y16434D01*
G01X2665Y16434D01*
G01X2665Y16432D01*
G01X2334Y16432D01*
G01X2334Y16434D01*
G01X2150Y16434D01*
G01X2150Y16432D01*
G01X2000Y16432D01*
G37*

%LPC*%
G36*
G01X5038Y17603D02*
G01X5115Y17634D01*
G01X5171Y17696D01*
G01X5192Y17778D01*
G01X5171Y17859D01*
G01X5115Y17921D01*
G01X5038Y17952D01*
G01X4953Y17942D01*
G01X4884Y17894D01*
G01X4846Y17819D01*
G01X4846Y17736D01*
G01X4884Y17661D01*
G01X4953Y17613D01*
G01X5038Y17603D01*
G37*
G36*
G01X4692Y18921D02*
G01X4767Y18932D01*
G01X4826Y18982D01*
G01X4848Y19055D01*
G01X4826Y19130D01*
G01X4767Y19180D01*
G01X4692Y19190D01*
G01X4621Y19157D01*
G01X4582Y19094D01*
G01X4582Y19017D01*
G01X4621Y18953D01*
G01X4692Y18921D01*
G37*
G36*
G01X2665Y16765D02*
G01X2850Y16765D01*
G01X2817Y16830D01*
G01X2730Y16917D01*
G01X2665Y16950D01*
G01X2665Y16765D01*
G37*
G36*
G01X2150Y16765D02*
G01X2334Y16765D01*
G01X2334Y16950D01*
G01X2269Y16917D01*
G01X2182Y16830D01*
G01X2150Y16765D01*
G37*
G36*
G01X6150Y18919D02*
G01X6226Y18930D01*
G01X6284Y18980D01*
G01X6305Y19053D01*
G01X6284Y19128D01*
G01X6226Y19178D01*
G01X6150Y19188D01*
G01X6080Y19155D01*
G01X6040Y19092D01*
G01X6040Y19015D01*
G01X6080Y18952D01*
G01X6150Y18919D01*
G37*
G36*
G01X4188Y18907D02*
G01X4263Y18917D01*
G01X4321Y18967D01*
G01X4344Y19042D01*
G01X4321Y19115D01*
G01X4263Y19165D01*
G01X4188Y19176D01*
G01X4117Y19144D01*
G01X4078Y19080D01*
G01X4078Y19003D01*
G01X4117Y18940D01*
G01X4188Y18907D01*
G37*
G36*
G01X5388Y17169D02*
G01X5463Y17180D01*
G01X5521Y17230D01*
G01X5544Y17303D01*
G01X5521Y17378D01*
G01X5463Y17428D01*
G01X5388Y17438D01*
G01X5317Y17405D01*
G01X5278Y17342D01*
G01X5278Y17265D01*
G01X5317Y17202D01*
G01X5388Y17169D01*
G37*
G36*
G01X6255Y17594D02*
G01X6334Y17623D01*
G01X6390Y17686D01*
G01X6409Y17767D01*
G01X6390Y17850D01*
G01X6334Y17911D01*
G01X6255Y17942D01*
G01X6171Y17932D01*
G01X6101Y17884D01*
G01X6063Y17809D01*
G01X6063Y17726D01*
G01X6101Y17652D01*
G01X6171Y17603D01*
G01X6255Y17594D01*
G37*
G36*
G01X4230Y18392D02*
G01X4307Y18421D01*
G01X4363Y18484D01*
G01X4384Y18565D01*
G01X4363Y18648D01*
G01X4307Y18709D01*
G01X4230Y18740D01*
G01X4146Y18730D01*
G01X4076Y18682D01*
G01X4038Y18607D01*
G01X4038Y18523D01*
G01X4076Y18450D01*
G01X4146Y18402D01*
G01X4230Y18392D01*
G37*
G36*
G01X4982Y18307D02*
G01X5059Y18338D01*
G01X5115Y18400D01*
G01X5136Y18482D01*
G01X5115Y18563D01*
G01X5059Y18626D01*
G01X4982Y18655D01*
G01X4898Y18646D01*
G01X4828Y18598D01*
G01X4790Y18523D01*
G01X4790Y18440D01*
G01X4828Y18365D01*
G01X4898Y18317D01*
G01X4982Y18307D01*
G37*

%LPD*%
G36*
G01X7030Y19867D02*
G01X5946Y20952D01*
G01X5984Y20994D01*
G01X6003Y21076D01*
G01X5984Y21157D01*
G01X5928Y21219D01*
G01X5850Y21250D01*
G01X5765Y21240D01*
G01X5701Y21196D01*
G01X4240Y22659D01*
G01X4240Y25171D01*
G01X5619Y25171D01*
G01X5611Y25157D01*
G01X5611Y25073D01*
G01X5650Y25000D01*
G01X5719Y24952D01*
G01X5803Y24942D01*
G01X5882Y24971D01*
G01X5938Y25034D01*
G01X5957Y25115D01*
G01X5944Y25171D01*
G01X6350Y25171D01*
G01X7030Y24490D01*
G01X7030Y23848D01*
G01X6940Y23763D01*
G01X6840Y23619D01*
G01X6771Y23459D01*
G01X6736Y23288D01*
G01X6736Y23111D01*
G01X6771Y22940D01*
G01X6840Y22780D01*
G01X6940Y22636D01*
G01X7030Y22552D01*
G01X7030Y22055D01*
G01X6996Y22086D01*
G01X6919Y22096D01*
G01X6850Y22063D01*
G01X6809Y22000D01*
G01X6809Y21923D01*
G01X6850Y21859D01*
G01X6919Y21828D01*
G01X6996Y21838D01*
G01X7030Y21867D01*
G01X7030Y20688D01*
G01X7301Y20415D01*
G01X7301Y19867D01*
G01X7030Y19867D01*
G37*

%LPC*%
G36*
G01X5317Y23238D02*
G01X5396Y23267D01*
G01X5451Y23330D01*
G01X5471Y23411D01*
G01X5451Y23494D01*
G01X5396Y23555D01*
G01X5317Y23586D01*
G01X5234Y23576D01*
G01X5163Y23528D01*
G01X5126Y23453D01*
G01X5126Y23369D01*
G01X5163Y23296D01*
G01X5234Y23248D01*
G01X5317Y23238D01*
G37*
G36*
G01X5853Y21592D02*
G01X5932Y21621D01*
G01X5988Y21684D01*
G01X6007Y21765D01*
G01X5988Y21848D01*
G01X5932Y21909D01*
G01X5853Y21940D01*
G01X5769Y21930D01*
G01X5700Y21882D01*
G01X5661Y21807D01*
G01X5661Y21723D01*
G01X5700Y21650D01*
G01X5769Y21602D01*
G01X5853Y21592D01*
G37*
G36*
G01X6001Y24646D02*
G01X6080Y24676D01*
G01X6136Y24738D01*
G01X6155Y24819D01*
G01X6136Y24902D01*
G01X6080Y24963D01*
G01X6001Y24994D01*
G01X5917Y24984D01*
G01X5848Y24936D01*
G01X5809Y24861D01*
G01X5809Y24778D01*
G01X5848Y24703D01*
G01X5917Y24655D01*
G01X6001Y24646D01*
G37*
G36*
G01X6073Y24269D02*
G01X6151Y24300D01*
G01X6207Y24361D01*
G01X6228Y24444D01*
G01X6207Y24526D01*
G01X6151Y24588D01*
G01X6073Y24617D01*
G01X5990Y24607D01*
G01X5919Y24559D01*
G01X5882Y24486D01*
G01X5882Y24402D01*
G01X5919Y24328D01*
G01X5990Y24280D01*
G01X6073Y24269D01*
G37*
G36*
G01X5123Y22123D02*
G01X5200Y22134D01*
G01X5257Y22184D01*
G01X5280Y22257D01*
G01X5257Y22332D01*
G01X5200Y22382D01*
G01X5123Y22392D01*
G01X5053Y22359D01*
G01X5013Y22296D01*
G01X5013Y22219D01*
G01X5053Y22155D01*
G01X5123Y22123D01*
G37*
G36*
G01X6492Y22663D02*
G01X6567Y22673D01*
G01X6626Y22723D01*
G01X6648Y22798D01*
G01X6626Y22871D01*
G01X6567Y22921D01*
G01X6492Y22932D01*
G01X6421Y22900D01*
G01X6382Y22836D01*
G01X6382Y22759D01*
G01X6421Y22696D01*
G01X6492Y22663D01*
G37*
G36*
G01X5761Y22946D02*
G01X5838Y22955D01*
G01X5896Y23005D01*
G01X5917Y23080D01*
G01X5896Y23153D01*
G01X5838Y23203D01*
G01X5761Y23213D01*
G01X5692Y23182D01*
G01X5651Y23117D01*
G01X5651Y23042D01*
G01X5692Y22978D01*
G01X5761Y22946D01*
G37*
G36*
G01X5334Y23694D02*
G01X5409Y23703D01*
G01X5467Y23753D01*
G01X5490Y23828D01*
G01X5467Y23902D01*
G01X5409Y23952D01*
G01X5334Y23961D01*
G01X5263Y23930D01*
G01X5223Y23865D01*
G01X5223Y23790D01*
G01X5263Y23726D01*
G01X5334Y23694D01*
G37*
G36*
G01X5903Y23457D02*
G01X5980Y23467D01*
G01X6038Y23517D01*
G01X6059Y23592D01*
G01X6038Y23665D01*
G01X5980Y23715D01*
G01X5903Y23726D01*
G01X5834Y23694D01*
G01X5794Y23630D01*
G01X5794Y23553D01*
G01X5834Y23490D01*
G01X5903Y23457D01*
G37*
G36*
G01X5644Y23576D02*
G01X5719Y23586D01*
G01X5778Y23636D01*
G01X5800Y23709D01*
G01X5778Y23784D01*
G01X5719Y23834D01*
G01X5644Y23844D01*
G01X5573Y23811D01*
G01X5534Y23748D01*
G01X5534Y23671D01*
G01X5573Y23607D01*
G01X5644Y23576D01*
G37*
G36*
G01X4498Y23634D02*
G01X4576Y23663D01*
G01X4632Y23726D01*
G01X4651Y23807D01*
G01X4632Y23890D01*
G01X4576Y23952D01*
G01X4498Y23982D01*
G01X4413Y23971D01*
G01X4344Y23923D01*
G01X4305Y23850D01*
G01X4305Y23765D01*
G01X4344Y23692D01*
G01X4413Y23644D01*
G01X4498Y23634D01*
G37*

%LPD*%
G36*
G01X2000Y19671D02*
G01X2000Y19988D01*
G01X2003Y19986D01*
G01X2088Y19976D01*
G01X2165Y20005D01*
G01X2221Y20067D01*
G01X2242Y20150D01*
G01X2221Y20232D01*
G01X2165Y20294D01*
G01X2088Y20323D01*
G01X2003Y20313D01*
G01X2000Y20311D01*
G01X2000Y27030D01*
G01X2457Y27488D01*
G01X2459Y27488D01*
G01X2463Y27486D01*
G01X2469Y27484D01*
G01X2586Y27484D01*
G01X2592Y27486D01*
G01X2596Y27488D01*
G01X2601Y27490D01*
G01X2688Y27532D01*
G01X2692Y27534D01*
G01X2696Y27538D01*
G01X2700Y27540D01*
G01X2707Y27548D01*
G01X2765Y27619D01*
G01X5757Y27619D01*
G01X6350Y27030D01*
G01X6350Y25565D01*
G01X6053Y25565D01*
G01X6001Y25586D01*
G01X5917Y25576D01*
G01X5903Y25565D01*
G01X5659Y25565D01*
G01X5607Y25586D01*
G01X5523Y25576D01*
G01X5509Y25565D01*
G01X3846Y25565D01*
G01X3846Y22498D01*
G01X4253Y22090D01*
G01X4253Y22061D01*
G01X4292Y21988D01*
G01X4361Y21940D01*
G01X4409Y21934D01*
G01X5776Y20569D01*
G01X5776Y19671D01*
G01X5700Y19671D01*
G01X5694Y19678D01*
G01X5617Y19688D01*
G01X5584Y19671D01*
G01X4390Y19671D01*
G01X4384Y19678D01*
G01X4307Y19688D01*
G01X4273Y19671D01*
G01X2000Y19671D01*
G37*

%LPC*%
G36*
G01X2200Y24946D02*
G01X2278Y24976D01*
G01X2334Y25038D01*
G01X2353Y25119D01*
G01X2334Y25202D01*
G01X2278Y25263D01*
G01X2200Y25294D01*
G01X2115Y25284D01*
G01X2046Y25236D01*
G01X2007Y25161D01*
G01X2007Y25078D01*
G01X2046Y25003D01*
G01X2115Y24955D01*
G01X2200Y24946D01*
G37*
G36*
G01X3140Y27267D02*
G01X3217Y27298D01*
G01X3273Y27359D01*
G01X3294Y27442D01*
G01X3273Y27523D01*
G01X3217Y27586D01*
G01X3140Y27615D01*
G01X3055Y27605D01*
G01X2986Y27557D01*
G01X2948Y27484D01*
G01X2948Y27400D01*
G01X2986Y27326D01*
G01X3055Y27278D01*
G01X3140Y27267D01*
G37*
G36*
G01X3217Y19955D02*
G01X3296Y19986D01*
G01X3351Y20048D01*
G01X3371Y20130D01*
G01X3351Y20211D01*
G01X3296Y20273D01*
G01X3217Y20303D01*
G01X3134Y20294D01*
G01X3063Y20246D01*
G01X3026Y20171D01*
G01X3026Y20088D01*
G01X3063Y20013D01*
G01X3134Y19965D01*
G01X3217Y19955D01*
G37*
G36*
G01X5544Y27230D02*
G01X5621Y27259D01*
G01X5678Y27321D01*
G01X5698Y27403D01*
G01X5678Y27486D01*
G01X5621Y27548D01*
G01X5544Y27578D01*
G01X5459Y27567D01*
G01X5390Y27519D01*
G01X5351Y27446D01*
G01X5351Y27361D01*
G01X5390Y27288D01*
G01X5459Y27240D01*
G01X5544Y27230D01*
G37*
G36*
G01X5101Y20132D02*
G01X5178Y20142D01*
G01X5236Y20192D01*
G01X5257Y20265D01*
G01X5236Y20340D01*
G01X5178Y20390D01*
G01X5101Y20400D01*
G01X5032Y20367D01*
G01X4992Y20303D01*
G01X4992Y20228D01*
G01X5032Y20163D01*
G01X5101Y20132D01*
G37*
G36*
G01X4192Y27163D02*
G01X4267Y27173D01*
G01X4326Y27223D01*
G01X4348Y27298D01*
G01X4330Y27359D01*
G01X4398Y27328D01*
G01X4473Y27338D01*
G01X4532Y27388D01*
G01X4553Y27461D01*
G01X4532Y27536D01*
G01X4473Y27586D01*
G01X4398Y27596D01*
G01X4328Y27563D01*
G01X4288Y27500D01*
G01X4288Y27423D01*
G01X4311Y27384D01*
G01X4267Y27421D01*
G01X4192Y27432D01*
G01X4121Y27400D01*
G01X4082Y27336D01*
G01X4082Y27259D01*
G01X4121Y27196D01*
G01X4192Y27163D01*
G37*
G36*
G01X4426Y20382D02*
G01X4503Y20411D01*
G01X4559Y20473D01*
G01X4580Y20555D01*
G01X4559Y20638D01*
G01X4503Y20700D01*
G01X4426Y20730D01*
G01X4342Y20719D01*
G01X4271Y20671D01*
G01X4234Y20598D01*
G01X4234Y20513D01*
G01X4271Y20440D01*
G01X4342Y20392D01*
G01X4426Y20382D01*
G37*
G36*
G01X2680Y20744D02*
G01X2757Y20773D01*
G01X2813Y20836D01*
G01X2834Y20917D01*
G01X2813Y21000D01*
G01X2757Y21061D01*
G01X2680Y21092D01*
G01X2596Y21082D01*
G01X2526Y21034D01*
G01X2488Y20959D01*
G01X2488Y20876D01*
G01X2526Y20802D01*
G01X2596Y20753D01*
G01X2680Y20744D01*
G37*
G36*
G01X4088Y21163D02*
G01X4165Y21194D01*
G01X4221Y21255D01*
G01X4242Y21338D01*
G01X4221Y21419D01*
G01X4165Y21482D01*
G01X4088Y21511D01*
G01X4003Y21502D01*
G01X3934Y21453D01*
G01X3896Y21380D01*
G01X3896Y21296D01*
G01X3934Y21221D01*
G01X4003Y21173D01*
G01X4088Y21163D01*
G37*
G36*
G01X2209Y21544D02*
G01X2288Y21573D01*
G01X2344Y21636D01*
G01X2363Y21717D01*
G01X2344Y21800D01*
G01X2288Y21861D01*
G01X2209Y21892D01*
G01X2126Y21882D01*
G01X2055Y21834D01*
G01X2017Y21759D01*
G01X2017Y21676D01*
G01X2055Y21602D01*
G01X2126Y21553D01*
G01X2209Y21544D01*
G37*
G36*
G01X2871Y22403D02*
G01X2950Y22434D01*
G01X3005Y22496D01*
G01X3026Y22578D01*
G01X3005Y22659D01*
G01X2950Y22721D01*
G01X2871Y22752D01*
G01X2788Y22742D01*
G01X2717Y22694D01*
G01X2680Y22619D01*
G01X2680Y22536D01*
G01X2717Y22461D01*
G01X2788Y22413D01*
G01X2871Y22403D01*
G37*
G36*
G01X2230Y23134D02*
G01X2307Y23163D01*
G01X2363Y23226D01*
G01X2384Y23307D01*
G01X2363Y23390D01*
G01X2307Y23452D01*
G01X2230Y23482D01*
G01X2146Y23471D01*
G01X2076Y23423D01*
G01X2038Y23350D01*
G01X2038Y23265D01*
G01X2076Y23192D01*
G01X2146Y23144D01*
G01X2230Y23134D01*
G37*
G36*
G01X2848Y24036D02*
G01X2926Y24065D01*
G01X2982Y24128D01*
G01X3001Y24209D01*
G01X2982Y24292D01*
G01X2926Y24353D01*
G01X2848Y24384D01*
G01X2763Y24373D01*
G01X2694Y24326D01*
G01X2655Y24252D01*
G01X2655Y24167D01*
G01X2694Y24094D01*
G01X2763Y24046D01*
G01X2848Y24036D01*
G37*
G36*
G01X4621Y26757D02*
G01X4698Y26767D01*
G01X4755Y26817D01*
G01X4778Y26892D01*
G01X4755Y26965D01*
G01X4698Y27015D01*
G01X4621Y27026D01*
G01X4551Y26994D01*
G01X4511Y26930D01*
G01X4511Y26853D01*
G01X4551Y26790D01*
G01X4621Y26757D01*
G37*
G36*
G01X6046Y26615D02*
G01X6123Y26646D01*
G01X6180Y26707D01*
G01X6200Y26790D01*
G01X6180Y26871D01*
G01X6123Y26934D01*
G01X6046Y26963D01*
G01X5961Y26953D01*
G01X5892Y26905D01*
G01X5853Y26832D01*
G01X5853Y26748D01*
G01X5892Y26673D01*
G01X5961Y26626D01*
G01X6046Y26615D01*
G37*
G36*
G01X3546Y26503D02*
G01X3623Y26534D01*
G01X3680Y26596D01*
G01X3700Y26678D01*
G01X3680Y26759D01*
G01X3623Y26821D01*
G01X3546Y26852D01*
G01X3461Y26842D01*
G01X3392Y26794D01*
G01X3353Y26719D01*
G01X3353Y26636D01*
G01X3392Y26561D01*
G01X3461Y26513D01*
G01X3546Y26503D01*
G37*
G36*
G01X2359Y26040D02*
G01X2438Y26069D01*
G01X2494Y26132D01*
G01X2513Y26213D01*
G01X2494Y26296D01*
G01X2438Y26357D01*
G01X2359Y26388D01*
G01X2276Y26378D01*
G01X2205Y26330D01*
G01X2167Y26255D01*
G01X2167Y26171D01*
G01X2205Y26098D01*
G01X2276Y26050D01*
G01X2359Y26040D01*
G37*
G36*
G01X5050Y26178D02*
G01X5128Y26207D01*
G01X5184Y26269D01*
G01X5203Y26352D01*
G01X5184Y26434D01*
G01X5128Y26496D01*
G01X5050Y26526D01*
G01X4965Y26515D01*
G01X4896Y26467D01*
G01X4857Y26394D01*
G01X4857Y26309D01*
G01X4896Y26236D01*
G01X4965Y26188D01*
G01X5050Y26178D01*
G37*

%LPD*%
G36*
G01X7696Y17100D02*
G01X7696Y19990D01*
G01X8478Y20776D01*
G01X8500Y20794D01*
G01X8501Y20798D01*
G01X8732Y21030D01*
G01X8903Y20857D01*
G01X8903Y20830D01*
G01X8944Y20765D01*
G01X9013Y20734D01*
G01X9026Y20736D01*
G01X10617Y19140D01*
G01X10648Y19140D01*
G01X10684Y19082D01*
G01X10753Y19050D01*
G01X10830Y19059D01*
G01X10888Y19109D01*
G01X10896Y19140D01*
G01X11163Y19140D01*
G01X11163Y17426D01*
G01X11126Y17400D01*
G01X11088Y17326D01*
G01X11088Y17242D01*
G01X11126Y17167D01*
G01X11163Y17142D01*
G01X11163Y17100D01*
G01X10617Y17100D01*
G01X10623Y17117D01*
G01X10601Y17192D01*
G01X10544Y17242D01*
G01X10467Y17252D01*
G01X10398Y17219D01*
G01X10357Y17155D01*
G01X10357Y17100D01*
G01X7696Y17100D01*
G37*

%LPC*%
G36*
G01X10019Y18734D02*
G01X10096Y18744D01*
G01X10153Y18794D01*
G01X10176Y18867D01*
G01X10153Y18942D01*
G01X10096Y18992D01*
G01X10019Y19002D01*
G01X9950Y18969D01*
G01X9909Y18905D01*
G01X9909Y18830D01*
G01X9950Y18765D01*
G01X10019Y18734D01*
G37*
G36*
G01X9667Y17784D02*
G01X9744Y17794D01*
G01X9801Y17844D01*
G01X9823Y17917D01*
G01X9801Y17992D01*
G01X9744Y18042D01*
G01X9667Y18052D01*
G01X9598Y18019D01*
G01X9557Y17955D01*
G01X9557Y17880D01*
G01X9598Y17815D01*
G01X9667Y17784D01*
G37*
G36*
G01X10913Y18136D02*
G01X10990Y18146D01*
G01X11048Y18196D01*
G01X11069Y18269D01*
G01X11048Y18344D01*
G01X10990Y18394D01*
G01X10913Y18403D01*
G01X10844Y18371D01*
G01X10803Y18307D01*
G01X10803Y18232D01*
G01X10844Y18167D01*
G01X10913Y18136D01*
G37*
G36*
G01X10671Y18411D02*
G01X10748Y18421D01*
G01X10805Y18471D01*
G01X10828Y18546D01*
G01X10805Y18619D01*
G01X10748Y18669D01*
G01X10671Y18680D01*
G01X10601Y18648D01*
G01X10561Y18584D01*
G01X10561Y18507D01*
G01X10601Y18444D01*
G01X10671Y18411D01*
G37*
G36*
G01X10459Y18584D02*
G01X10536Y18594D01*
G01X10594Y18644D01*
G01X10615Y18717D01*
G01X10594Y18792D01*
G01X10536Y18842D01*
G01X10459Y18852D01*
G01X10390Y18819D01*
G01X10350Y18755D01*
G01X10350Y18680D01*
G01X10390Y18615D01*
G01X10459Y18584D01*
G37*
G36*
G01X9298Y18628D02*
G01X9376Y18657D01*
G01X9432Y18719D01*
G01X9451Y18802D01*
G01X9432Y18884D01*
G01X9376Y18946D01*
G01X9298Y18976D01*
G01X9213Y18965D01*
G01X9144Y18917D01*
G01X9105Y18844D01*
G01X9105Y18759D01*
G01X9144Y18686D01*
G01X9213Y18638D01*
G01X9298Y18628D01*
G37*
G36*
G01X8765Y18628D02*
G01X8844Y18657D01*
G01X8900Y18719D01*
G01X8919Y18802D01*
G01X8900Y18884D01*
G01X8844Y18946D01*
G01X8765Y18976D01*
G01X8682Y18965D01*
G01X8611Y18917D01*
G01X8573Y18844D01*
G01X8573Y18759D01*
G01X8611Y18686D01*
G01X8682Y18638D01*
G01X8765Y18628D01*
G37*
G36*
G01X8234Y18628D02*
G01X8311Y18657D01*
G01X8367Y18719D01*
G01X8388Y18802D01*
G01X8367Y18884D01*
G01X8311Y18946D01*
G01X8234Y18976D01*
G01X8150Y18965D01*
G01X8080Y18917D01*
G01X8042Y18844D01*
G01X8042Y18759D01*
G01X8080Y18686D01*
G01X8150Y18638D01*
G01X8234Y18628D01*
G37*
G36*
G01X8234Y19690D02*
G01X8311Y19719D01*
G01X8367Y19782D01*
G01X8388Y19863D01*
G01X8367Y19946D01*
G01X8311Y20007D01*
G01X8234Y20038D01*
G01X8150Y20028D01*
G01X8080Y19980D01*
G01X8042Y19905D01*
G01X8042Y19821D01*
G01X8080Y19748D01*
G01X8150Y19700D01*
G01X8234Y19690D01*
G37*
G36*
G01X8765Y19690D02*
G01X8844Y19719D01*
G01X8900Y19782D01*
G01X8919Y19863D01*
G01X8900Y19946D01*
G01X8844Y20007D01*
G01X8765Y20038D01*
G01X8682Y20028D01*
G01X8611Y19980D01*
G01X8573Y19905D01*
G01X8573Y19821D01*
G01X8611Y19748D01*
G01X8682Y19700D01*
G01X8765Y19690D01*
G37*
G36*
G01X10273Y19126D02*
G01X10350Y19136D01*
G01X10407Y19186D01*
G01X10430Y19259D01*
G01X10407Y19334D01*
G01X10350Y19384D01*
G01X10273Y19394D01*
G01X10203Y19361D01*
G01X10163Y19298D01*
G01X10163Y19221D01*
G01X10203Y19157D01*
G01X10273Y19126D01*
G37*
G36*
G01X9298Y19157D02*
G01X9376Y19188D01*
G01X9432Y19250D01*
G01X9451Y19332D01*
G01X9432Y19413D01*
G01X9376Y19476D01*
G01X9298Y19505D01*
G01X9213Y19496D01*
G01X9144Y19448D01*
G01X9105Y19373D01*
G01X9105Y19290D01*
G01X9144Y19215D01*
G01X9213Y19167D01*
G01X9298Y19157D01*
G37*
G36*
G01X8234Y19157D02*
G01X8311Y19188D01*
G01X8367Y19250D01*
G01X8388Y19332D01*
G01X8367Y19413D01*
G01X8311Y19476D01*
G01X8234Y19505D01*
G01X8150Y19496D01*
G01X8080Y19448D01*
G01X8042Y19373D01*
G01X8042Y19290D01*
G01X8080Y19215D01*
G01X8150Y19167D01*
G01X8234Y19157D01*
G37*
G36*
G01X8765Y19157D02*
G01X8844Y19188D01*
G01X8900Y19250D01*
G01X8919Y19332D01*
G01X8900Y19413D01*
G01X8844Y19476D01*
G01X8765Y19505D01*
G01X8682Y19496D01*
G01X8611Y19448D01*
G01X8573Y19373D01*
G01X8573Y19290D01*
G01X8611Y19215D01*
G01X8682Y19167D01*
G01X8765Y19157D01*
G37*
G36*
G01X9298Y19690D02*
G01X9376Y19719D01*
G01X9432Y19782D01*
G01X9451Y19863D01*
G01X9432Y19946D01*
G01X9376Y20007D01*
G01X9298Y20038D01*
G01X9213Y20028D01*
G01X9144Y19980D01*
G01X9105Y19905D01*
G01X9105Y19821D01*
G01X9144Y19748D01*
G01X9213Y19700D01*
G01X9298Y19690D01*
G37*

%LPD*%
G36*
G01X12788Y19534D02*
G01X11736Y19536D01*
G01X11740Y19538D01*
G01X11796Y19600D01*
G01X11815Y19682D01*
G01X11796Y19763D01*
G01X11740Y19826D01*
G01X11661Y19855D01*
G01X11578Y19846D01*
G01X11507Y19798D01*
G01X11469Y19723D01*
G01X11469Y19640D01*
G01X11507Y19565D01*
G01X11550Y19536D01*
G01X10778Y19538D01*
G01X10290Y20026D01*
G01X10311Y20044D01*
G01X10334Y20117D01*
G01X10311Y20192D01*
G01X10253Y20242D01*
G01X10178Y20252D01*
G01X10107Y20219D01*
G01X10103Y20211D01*
G01X8732Y21582D01*
G01X7711Y20561D01*
G01X7423Y20848D01*
G01X7423Y21750D01*
G01X7453Y21776D01*
G01X7476Y21850D01*
G01X7453Y21923D01*
G01X7423Y21950D01*
G01X7423Y22355D01*
G01X7553Y22336D01*
G01X7730Y22344D01*
G01X7898Y22388D01*
G01X8055Y22465D01*
G01X8194Y22571D01*
G01X8307Y22705D01*
G01X8394Y22857D01*
G01X8446Y23026D01*
G01X8463Y23200D01*
G01X8446Y23373D01*
G01X8394Y23542D01*
G01X8307Y23694D01*
G01X8194Y23828D01*
G01X8055Y23934D01*
G01X7898Y24011D01*
G01X7830Y24030D01*
G01X8186Y24386D01*
G01X8196Y24380D01*
G01X8271Y24390D01*
G01X8330Y24440D01*
G01X8351Y24513D01*
G01X8344Y24544D01*
G01X8959Y25159D01*
G01X9969Y25159D01*
G01X9934Y25144D01*
G01X9894Y25080D01*
G01X9894Y25003D01*
G01X9934Y24940D01*
G01X10003Y24907D01*
G01X10080Y24917D01*
G01X10138Y24967D01*
G01X10142Y24984D01*
G01X10169Y24940D01*
G01X10240Y24907D01*
G01X10315Y24917D01*
G01X10373Y24967D01*
G01X10396Y25042D01*
G01X10373Y25115D01*
G01X10321Y25159D01*
G01X11719Y25159D01*
G01X11726Y25150D01*
G01X11796Y25102D01*
G01X11880Y25092D01*
G01X11957Y25121D01*
G01X11992Y25159D01*
G01X12609Y25159D01*
G01X13115Y24652D01*
G01X13107Y24600D01*
G01X13128Y24478D01*
G01X13182Y24369D01*
G01X13269Y24282D01*
G01X13378Y24228D01*
G01X13500Y24207D01*
G01X13551Y24215D01*
G01X13667Y24100D01*
G01X13667Y23948D01*
G01X13665Y23950D01*
G01X13665Y23765D01*
G01X13667Y23765D01*
G01X13667Y23434D01*
G01X13665Y23434D01*
G01X13665Y23250D01*
G01X13667Y23250D01*
G01X13667Y23100D01*
G01X13551Y22984D01*
G01X13500Y22992D01*
G01X13378Y22971D01*
G01X13269Y22917D01*
G01X13182Y22830D01*
G01X13128Y22721D01*
G01X13107Y22600D01*
G01X13115Y22548D01*
G01X13000Y22432D01*
G01X13000Y19605D01*
G01X12957Y19621D01*
G01X12873Y19611D01*
G01X12803Y19563D01*
G01X12788Y19534D01*
G37*

%LPC*%
G36*
G01X11042Y22442D02*
G01X11119Y22471D01*
G01X11176Y22534D01*
G01X11196Y22615D01*
G01X11176Y22698D01*
G01X11119Y22759D01*
G01X11042Y22790D01*
G01X10957Y22780D01*
G01X10888Y22732D01*
G01X10850Y22657D01*
G01X10850Y22573D01*
G01X10888Y22500D01*
G01X10957Y22452D01*
G01X11042Y22442D01*
G37*
G36*
G01X9500Y24402D02*
G01X9578Y24432D01*
G01X9634Y24494D01*
G01X9653Y24576D01*
G01X9634Y24657D01*
G01X9578Y24719D01*
G01X9500Y24750D01*
G01X9415Y24740D01*
G01X9346Y24692D01*
G01X9307Y24617D01*
G01X9307Y24534D01*
G01X9346Y24459D01*
G01X9415Y24411D01*
G01X9500Y24402D01*
G37*
G36*
G01X10830Y19798D02*
G01X10905Y19807D01*
G01X10963Y19857D01*
G01X10986Y19932D01*
G01X10963Y20005D01*
G01X10905Y20055D01*
G01X10830Y20065D01*
G01X10759Y20034D01*
G01X10719Y19969D01*
G01X10719Y19894D01*
G01X10759Y19830D01*
G01X10830Y19798D01*
G37*
G36*
G01X10569Y19888D02*
G01X10646Y19898D01*
G01X10703Y19948D01*
G01X10726Y20021D01*
G01X10707Y20082D01*
G01X10748Y20063D01*
G01X10823Y20073D01*
G01X10882Y20123D01*
G01X10903Y20198D01*
G01X10882Y20271D01*
G01X10823Y20321D01*
G01X10748Y20332D01*
G01X10678Y20300D01*
G01X10638Y20236D01*
G01X10638Y20159D01*
G01X10646Y20146D01*
G01X10569Y20155D01*
G01X10500Y20123D01*
G01X10459Y20059D01*
G01X10459Y19984D01*
G01X10500Y19919D01*
G01X10569Y19888D01*
G37*
G36*
G01X10544Y24357D02*
G01X10621Y24388D01*
G01X10678Y24450D01*
G01X10698Y24532D01*
G01X10678Y24613D01*
G01X10621Y24676D01*
G01X10544Y24705D01*
G01X10459Y24696D01*
G01X10390Y24648D01*
G01X10351Y24573D01*
G01X10351Y24490D01*
G01X10390Y24415D01*
G01X10459Y24367D01*
G01X10544Y24357D01*
G37*
G36*
G01X11994Y24323D02*
G01X12071Y24353D01*
G01X12128Y24415D01*
G01X12148Y24498D01*
G01X12128Y24580D01*
G01X12071Y24642D01*
G01X11994Y24671D01*
G01X11909Y24661D01*
G01X11840Y24613D01*
G01X11801Y24540D01*
G01X11801Y24455D01*
G01X11840Y24382D01*
G01X11909Y24334D01*
G01X11994Y24323D01*
G37*
G36*
G01X12205Y20173D02*
G01X12284Y20203D01*
G01X12340Y20265D01*
G01X12359Y20348D01*
G01X12340Y20430D01*
G01X12284Y20492D01*
G01X12205Y20521D01*
G01X12121Y20511D01*
G01X12051Y20463D01*
G01X12013Y20390D01*
G01X12013Y20305D01*
G01X12051Y20232D01*
G01X12121Y20184D01*
G01X12205Y20173D01*
G37*
G36*
G01X13150Y23765D02*
G01X13334Y23765D01*
G01X13334Y23950D01*
G01X13269Y23917D01*
G01X13182Y23830D01*
G01X13150Y23765D01*
G37*
G36*
G01X10586Y20315D02*
G01X10661Y20326D01*
G01X10719Y20376D01*
G01X10742Y20450D01*
G01X10719Y20523D01*
G01X10661Y20573D01*
G01X10586Y20584D01*
G01X10515Y20552D01*
G01X10476Y20488D01*
G01X10476Y20411D01*
G01X10515Y20348D01*
G01X10586Y20315D01*
G37*
G36*
G01X10869Y20513D02*
G01X10948Y20544D01*
G01X11003Y20605D01*
G01X11023Y20688D01*
G01X11003Y20769D01*
G01X10948Y20832D01*
G01X10869Y20861D01*
G01X10786Y20852D01*
G01X10715Y20803D01*
G01X10678Y20730D01*
G01X10678Y20646D01*
G01X10715Y20571D01*
G01X10786Y20523D01*
G01X10869Y20513D01*
G37*
G36*
G01X11209Y23338D02*
G01X11288Y23367D01*
G01X11344Y23430D01*
G01X11363Y23511D01*
G01X11344Y23594D01*
G01X11288Y23655D01*
G01X11209Y23686D01*
G01X11126Y23676D01*
G01X11055Y23628D01*
G01X11017Y23553D01*
G01X11017Y23469D01*
G01X11055Y23396D01*
G01X11126Y23348D01*
G01X11209Y23338D01*
G37*
G36*
G01X12705Y20734D02*
G01X12784Y20763D01*
G01X12840Y20826D01*
G01X12859Y20907D01*
G01X12840Y20990D01*
G01X12784Y21052D01*
G01X12705Y21082D01*
G01X12621Y21071D01*
G01X12551Y21023D01*
G01X12513Y20950D01*
G01X12513Y20865D01*
G01X12551Y20792D01*
G01X12621Y20744D01*
G01X12705Y20734D01*
G37*
G36*
G01X11780Y20773D02*
G01X11857Y20803D01*
G01X11913Y20865D01*
G01X11934Y20948D01*
G01X11913Y21030D01*
G01X11857Y21092D01*
G01X11780Y21121D01*
G01X11696Y21111D01*
G01X11626Y21063D01*
G01X11588Y20990D01*
G01X11588Y20905D01*
G01X11626Y20832D01*
G01X11696Y20784D01*
G01X11780Y20773D01*
G37*
G36*
G01X7944Y21323D02*
G01X8019Y21334D01*
G01X8078Y21384D01*
G01X8100Y21457D01*
G01X8078Y21532D01*
G01X8019Y21582D01*
G01X7944Y21592D01*
G01X7873Y21559D01*
G01X7834Y21496D01*
G01X7834Y21419D01*
G01X7873Y21355D01*
G01X7944Y21323D01*
G37*
G36*
G01X9473Y21676D02*
G01X9550Y21686D01*
G01X9607Y21736D01*
G01X9630Y21809D01*
G01X9607Y21884D01*
G01X9550Y21934D01*
G01X9473Y21944D01*
G01X9403Y21911D01*
G01X9363Y21848D01*
G01X9363Y21771D01*
G01X9403Y21707D01*
G01X9473Y21676D01*
G37*
G36*
G01X8967Y21680D02*
G01X9044Y21690D01*
G01X9101Y21740D01*
G01X9123Y21813D01*
G01X9101Y21888D01*
G01X9044Y21938D01*
G01X8967Y21948D01*
G01X8898Y21915D01*
G01X8857Y21852D01*
G01X8857Y21776D01*
G01X8898Y21711D01*
G01X8967Y21680D01*
G37*
G36*
G01X11407Y21986D02*
G01X11486Y22015D01*
G01X11542Y22078D01*
G01X11561Y22159D01*
G01X11542Y22242D01*
G01X11486Y22303D01*
G01X11407Y22334D01*
G01X11323Y22323D01*
G01X11253Y22276D01*
G01X11215Y22202D01*
G01X11215Y22117D01*
G01X11253Y22044D01*
G01X11323Y21996D01*
G01X11407Y21986D01*
G37*
G36*
G01X13334Y23250D02*
G01X13334Y23434D01*
G01X13150Y23434D01*
G01X13182Y23369D01*
G01X13269Y23282D01*
G01X13334Y23250D01*
G37*
G36*
G01X12726Y23059D02*
G01X12801Y23069D01*
G01X12859Y23119D01*
G01X12882Y23194D01*
G01X12859Y23267D01*
G01X12801Y23317D01*
G01X12726Y23328D01*
G01X12655Y23296D01*
G01X12615Y23232D01*
G01X12615Y23155D01*
G01X12655Y23092D01*
G01X12726Y23059D01*
G37*
G36*
G01X11473Y22790D02*
G01X11551Y22819D01*
G01X11607Y22882D01*
G01X11628Y22963D01*
G01X11607Y23046D01*
G01X11551Y23107D01*
G01X11473Y23138D01*
G01X11390Y23128D01*
G01X11319Y23080D01*
G01X11282Y23005D01*
G01X11282Y22921D01*
G01X11319Y22848D01*
G01X11390Y22800D01*
G01X11473Y22790D01*
G37*

%LPD*%
G36*
G01X7659Y24415D02*
G01X7284Y24792D01*
G01X7326Y24838D01*
G01X7346Y24919D01*
G01X7326Y25002D01*
G01X7269Y25063D01*
G01X7192Y25094D01*
G01X7107Y25084D01*
G01X7040Y25038D01*
G01X6744Y25334D01*
G01X6744Y27030D01*
G01X7334Y27619D01*
G01X8651Y27619D01*
G01X8709Y27548D01*
G01X8717Y27540D01*
G01X8721Y27538D01*
G01X8726Y27534D01*
G01X8730Y27532D01*
G01X8815Y27490D01*
G01X8821Y27488D01*
G01X8826Y27486D01*
G01X8832Y27484D01*
G01X8948Y27484D01*
G01X8953Y27486D01*
G01X8957Y27488D01*
G01X8963Y27490D01*
G01X9050Y27532D01*
G01X9053Y27534D01*
G01X9057Y27538D01*
G01X9061Y27540D01*
G01X9069Y27548D01*
G01X9128Y27619D01*
G01X12234Y27619D01*
G01X12292Y27548D01*
G01X12300Y27540D01*
G01X12303Y27538D01*
G01X12307Y27534D01*
G01X12311Y27532D01*
G01X12398Y27490D01*
G01X12403Y27488D01*
G01X12407Y27486D01*
G01X12413Y27484D01*
G01X12530Y27484D01*
G01X12536Y27486D01*
G01X12540Y27488D01*
G01X12546Y27490D01*
G01X12632Y27532D01*
G01X12636Y27534D01*
G01X12640Y27538D01*
G01X12644Y27540D01*
G01X12651Y27548D01*
G01X12709Y27619D01*
G01X13111Y27619D01*
G01X13107Y27600D01*
G01X13128Y27478D01*
G01X13182Y27369D01*
G01X13269Y27282D01*
G01X13378Y27228D01*
G01X13500Y27207D01*
G01X13551Y27215D01*
G01X13667Y27100D01*
G01X13667Y26948D01*
G01X13665Y26950D01*
G01X13665Y26765D01*
G01X13667Y26765D01*
G01X13667Y26434D01*
G01X13665Y26434D01*
G01X13665Y26250D01*
G01X13667Y26250D01*
G01X13667Y26100D01*
G01X13551Y25984D01*
G01X13500Y25992D01*
G01X13378Y25971D01*
G01X13269Y25917D01*
G01X13182Y25830D01*
G01X13128Y25721D01*
G01X13107Y25600D01*
G01X13115Y25553D01*
G01X8798Y25553D01*
G01X7659Y24415D01*
G37*

%LPC*%
G36*
G01X11905Y26498D02*
G01X11984Y26528D01*
G01X12040Y26590D01*
G01X12059Y26671D01*
G01X12040Y26753D01*
G01X11984Y26815D01*
G01X11905Y26846D01*
G01X11821Y26836D01*
G01X11751Y26788D01*
G01X11713Y26713D01*
G01X11713Y26630D01*
G01X11751Y26555D01*
G01X11821Y26507D01*
G01X11905Y26498D01*
G37*
G36*
G01X8098Y25303D02*
G01X8173Y25313D01*
G01X8232Y25363D01*
G01X8253Y25438D01*
G01X8232Y25511D01*
G01X8173Y25561D01*
G01X8098Y25571D01*
G01X8028Y25540D01*
G01X7988Y25476D01*
G01X7988Y25400D01*
G01X8028Y25336D01*
G01X8098Y25303D01*
G37*
G36*
G01X12542Y25600D02*
G01X12619Y25630D01*
G01X12676Y25692D01*
G01X12696Y25773D01*
G01X12676Y25855D01*
G01X12619Y25917D01*
G01X12542Y25948D01*
G01X12457Y25938D01*
G01X12388Y25890D01*
G01X12350Y25815D01*
G01X12350Y25732D01*
G01X12388Y25657D01*
G01X12457Y25609D01*
G01X12542Y25600D01*
G37*
G36*
G01X7057Y25605D02*
G01X7136Y25636D01*
G01X7192Y25698D01*
G01X7211Y25780D01*
G01X7192Y25861D01*
G01X7136Y25923D01*
G01X7057Y25953D01*
G01X6973Y25944D01*
G01X6903Y25896D01*
G01X6865Y25821D01*
G01X6865Y25738D01*
G01X6903Y25663D01*
G01X6973Y25615D01*
G01X7057Y25605D01*
G37*
G36*
G01X9419Y25780D02*
G01X9498Y25809D01*
G01X9553Y25871D01*
G01X9573Y25953D01*
G01X9553Y26036D01*
G01X9498Y26098D01*
G01X9419Y26128D01*
G01X9336Y26117D01*
G01X9265Y26069D01*
G01X9228Y25996D01*
G01X9228Y25911D01*
G01X9265Y25838D01*
G01X9336Y25790D01*
G01X9419Y25780D01*
G37*
G36*
G01X11542Y25811D02*
G01X11619Y25842D01*
G01X11676Y25903D01*
G01X11696Y25986D01*
G01X11676Y26067D01*
G01X11619Y26130D01*
G01X11542Y26159D01*
G01X11457Y26150D01*
G01X11388Y26102D01*
G01X11350Y26028D01*
G01X11350Y25944D01*
G01X11388Y25869D01*
G01X11457Y25821D01*
G01X11542Y25811D01*
G37*
G36*
G01X10378Y27328D02*
G01X10453Y27338D01*
G01X10511Y27388D01*
G01X10534Y27461D01*
G01X10511Y27536D01*
G01X10453Y27586D01*
G01X10378Y27596D01*
G01X10307Y27563D01*
G01X10267Y27500D01*
G01X10267Y27423D01*
G01X10307Y27359D01*
G01X10378Y27328D01*
G37*
G36*
G01X10432Y26152D02*
G01X10507Y26161D01*
G01X10565Y26211D01*
G01X10588Y26286D01*
G01X10565Y26359D01*
G01X10507Y26409D01*
G01X10432Y26419D01*
G01X10361Y26388D01*
G01X10321Y26323D01*
G01X10321Y26248D01*
G01X10361Y26184D01*
G01X10432Y26152D01*
G37*
G36*
G01X11938Y27134D02*
G01X12015Y27163D01*
G01X12071Y27226D01*
G01X12092Y27307D01*
G01X12071Y27390D01*
G01X12015Y27452D01*
G01X11938Y27482D01*
G01X11853Y27471D01*
G01X11784Y27423D01*
G01X11746Y27350D01*
G01X11746Y27265D01*
G01X11784Y27192D01*
G01X11853Y27144D01*
G01X11938Y27134D01*
G37*
G36*
G01X13334Y26250D02*
G01X13334Y26434D01*
G01X13150Y26434D01*
G01X13182Y26369D01*
G01X13269Y26282D01*
G01X13334Y26250D01*
G37*
G36*
G01X7844Y26409D02*
G01X7921Y26440D01*
G01X7978Y26502D01*
G01X7998Y26584D01*
G01X7978Y26665D01*
G01X7921Y26728D01*
G01X7844Y26757D01*
G01X7759Y26748D01*
G01X7690Y26700D01*
G01X7651Y26626D01*
G01X7651Y26542D01*
G01X7690Y26467D01*
G01X7759Y26419D01*
G01X7844Y26409D01*
G37*
G36*
G01X9478Y27134D02*
G01X9555Y27163D01*
G01X9611Y27226D01*
G01X9632Y27307D01*
G01X9611Y27390D01*
G01X9555Y27452D01*
G01X9478Y27482D01*
G01X9394Y27471D01*
G01X9323Y27423D01*
G01X9286Y27350D01*
G01X9286Y27265D01*
G01X9323Y27192D01*
G01X9394Y27144D01*
G01X9478Y27134D01*
G37*
G36*
G01X10857Y27092D02*
G01X10934Y27102D01*
G01X10992Y27152D01*
G01X11013Y27226D01*
G01X10992Y27300D01*
G01X10934Y27350D01*
G01X10857Y27359D01*
G01X10788Y27328D01*
G01X10748Y27263D01*
G01X10748Y27188D01*
G01X10788Y27123D01*
G01X10857Y27092D01*
G37*
G36*
G01X13150Y26765D02*
G01X13334Y26765D01*
G01X13334Y26950D01*
G01X13269Y26917D01*
G01X13182Y26830D01*
G01X13150Y26765D01*
G37*
G36*
G01X12746Y27036D02*
G01X12823Y27065D01*
G01X12880Y27128D01*
G01X12900Y27209D01*
G01X12880Y27292D01*
G01X12823Y27353D01*
G01X12746Y27384D01*
G01X12661Y27373D01*
G01X12592Y27326D01*
G01X12553Y27252D01*
G01X12553Y27167D01*
G01X12592Y27094D01*
G01X12661Y27046D01*
G01X12746Y27036D01*
G37*

%LPD*%
G54D15*
G01X14500Y25600D03*
G01X14500Y26600D03*
G01X13501Y26598D03*
G54D17*
G01X7598Y23198D03*
G54D15*
G01X3501Y16598D03*
G01X7501Y16598D03*
G01X10501Y16598D03*
G01X9500Y15600D03*
G01X1501Y16598D03*
G01X13500Y22600D03*
G01X1501Y15598D03*
G01X3500Y15600D03*
G01X2500Y15600D03*
G01X14500Y21600D03*
G01X14501Y22598D03*
G01X14501Y23598D03*
G01X13501Y24598D03*
G01X501Y16598D03*
G01X4501Y16598D03*
G01X5501Y16598D03*
G01X5501Y15598D03*
G01X6500Y15600D03*
G01X8501Y15598D03*
G01X8501Y16598D03*
G01X11501Y15598D03*
G01X11500Y16600D03*
G01X13501Y20598D03*
G01X13501Y19598D03*
G01X13501Y21598D03*
G01X14501Y20598D03*
G01X500Y15600D03*
G01X4500Y15600D03*
G01X6500Y16600D03*
G01X7501Y15598D03*
G01X10501Y15598D03*
G01X9500Y16600D03*
G01X14500Y19600D03*
G54D17*
G01X14201Y29302D03*
G01X798Y17917D03*
G01X798Y29302D03*
G54D15*
G01X14500Y24600D03*
G01X13501Y25598D03*
G01X14500Y27600D03*
G01X13500Y27600D03*
G01X2500Y16600D03*
G01X13501Y23598D03*
G54D11*
G01X8228Y23198D03*
G01X7598Y23828D03*
G01X6967Y23198D03*
G01X7598Y22567D03*
G01X7165Y22765D03*
G01X8030Y22765D03*
G01X8030Y23632D03*
G01X7165Y23630D03*
G01X14830Y29301D03*
G01X14201Y29930D03*
G01X13571Y29301D03*
G01X14201Y28671D03*
G01X13767Y28867D03*
G01X14634Y28867D03*
G01X14634Y29734D03*
G01X13767Y29734D03*
G01X1428Y17917D03*
G01X798Y18546D03*
G01X169Y17917D03*
G01X798Y17286D03*
G01X365Y17484D03*
G01X1232Y17484D03*
G01X1232Y18351D03*
G01X365Y18350D03*
G01X1428Y29301D03*
G01X798Y29930D03*
G01X169Y29301D03*
G01X798Y28671D03*
G01X365Y28867D03*
G01X1232Y28867D03*
G01X1232Y29734D03*
G01X365Y29734D03*
G54D12*
G01X4319Y28328D03*
G01X4317Y28130D03*
G01X10680Y28328D03*
G01X10680Y28130D03*
G54D13*
G01X4869Y27403D03*
G01X3767Y27403D03*
G54D12*
G01X4213Y27296D03*
G01X4417Y27461D03*
G01X4642Y26890D03*
G54D13*
G01X10130Y27403D03*
G01X11232Y27403D03*
G54D12*
G01X10680Y27096D03*
G01X10878Y27226D03*
G01X10398Y27461D03*
G01X10040Y18867D03*
G01X7086Y20478D03*
G01X7086Y20084D03*
G54D13*
G01X5401Y20005D03*
G54D12*
G01X5638Y19553D03*
G01X5834Y19394D03*
G01X7075Y19088D03*
G01X4328Y19553D03*
G01X4523Y19394D03*
G54D14*
G01X6121Y25828D03*
G01X7067Y25286D03*
G01X6826Y24398D03*
G54D12*
G01X9142Y26340D03*
G01X10023Y25040D03*
G01X10259Y25040D03*
G01X10496Y25040D03*
G01X9786Y25040D03*
G01X10767Y20198D03*
G01X10590Y20021D03*
G01X8719Y20867D03*
G01X10692Y17482D03*
G01X10038Y18505D03*
G01X11071Y19044D03*
G01X8386Y20867D03*
G01X9034Y20867D03*
G01X7771Y20788D03*
G54D14*
G01X4503Y24907D03*
G54D12*
G01X4282Y26559D03*
G01X10934Y18269D03*
G01X4209Y19040D03*
G01X4365Y19217D03*
G01X5782Y23080D03*
G01X6940Y21961D03*
G01X5353Y23828D03*
G01X5665Y23709D03*
G01X6901Y26603D03*
G01X6507Y27107D03*
G54D13*
G01X12519Y25773D03*
G01X11519Y25986D03*
G01X11917Y27307D03*
G01X11884Y26671D03*
G01X12725Y27209D03*
G01X9457Y27307D03*
G01X9398Y25953D03*
G54D12*
G01X10451Y26284D03*
G54D13*
G01X7823Y26582D03*
G01X6705Y27582D03*
G01X5028Y26351D03*
G01X6023Y26790D03*
G01X5523Y27403D03*
G01X6053Y24442D03*
G54D12*
G01X5925Y23592D03*
G54D13*
G01X5296Y23411D03*
G01X4476Y23807D03*
G01X4021Y22942D03*
G01X4425Y22103D03*
G01X4067Y21338D03*
G01X4405Y20555D03*
G01X4025Y24603D03*
G54D12*
G01X6513Y22796D03*
G01X7340Y21848D03*
G01X7965Y21457D03*
G01X8988Y21813D03*
G01X9494Y21809D03*
G01X10480Y18717D03*
G01X10692Y18544D03*
G01X9998Y16940D03*
G01X9688Y17917D03*
G01X10488Y17117D03*
G54D13*
G01X5015Y17777D03*
G01X6234Y17767D03*
G54D12*
G01X4736Y17190D03*
G01X5407Y17303D03*
G54D13*
G01X4207Y18565D03*
G01X4961Y18482D03*
G54D12*
G01X4711Y19055D03*
G54D13*
G01X390Y19480D03*
G01X1476Y19417D03*
G01X975Y20119D03*
G01X2067Y20150D03*
G01X2709Y19371D03*
G01X3196Y20130D03*
G01X2657Y20917D03*
G01X2851Y22578D03*
G01X1596Y20969D03*
G01X336Y20938D03*
G01X357Y22498D03*
G01X1576Y22517D03*
G01X859Y23267D03*
G01X2188Y21717D03*
G01X2209Y23307D03*
G01X2826Y24209D03*
G01X2178Y25119D03*
G01X2338Y26213D03*
G01X1157Y25848D03*
G01X3117Y27440D03*
G01X751Y27721D03*
G01X1484Y27648D03*
G01X3523Y26678D03*
G01X9478Y24576D03*
G01X10523Y24532D03*
G01X11973Y24496D03*
G01X11188Y23511D03*
G54D12*
G01X12746Y23194D03*
G54D13*
G01X11021Y22615D03*
G01X11386Y22159D03*
G01X11451Y22963D03*
G54D12*
G01X6273Y20340D03*
G01X5917Y20167D03*
G54D13*
G01X5828Y21076D03*
G01X5832Y21765D03*
G54D12*
G01X5123Y20265D03*
G01X6171Y19053D03*
G01X6198Y19588D03*
G01X1715Y17432D03*
G54D13*
G01X7169Y24919D03*
G01X7036Y25778D03*
G54D12*
G01X8117Y25438D03*
G01X8217Y24513D03*
G54D13*
G01X12223Y15317D03*
G01X12223Y15709D03*
G01X12223Y16103D03*
G01X12223Y16498D03*
G01X12223Y16890D03*
G01X12223Y17284D03*
G01X12223Y17678D03*
G01X11259Y17282D03*
G01X11463Y17838D03*
G54D12*
G01X14830Y17876D03*
G01X14555Y17876D03*
G01X13601Y17876D03*
G01X13601Y18190D03*
G01X13090Y17876D03*
G01X12815Y17876D03*
G01X12538Y17876D03*
G54D13*
G01X11771Y17486D03*
G01X14669Y18348D03*
G01X14646Y18955D03*
G01X14036Y19057D03*
G01X13030Y18798D03*
G54D12*
G01X11636Y18490D03*
G01X12419Y18392D03*
G01X11976Y18403D03*
G54D13*
G01X13451Y18963D03*
G01X12936Y19448D03*
G01X12184Y20348D03*
G01X11759Y20948D03*
G01X12684Y20907D03*
G01X11640Y19680D03*
G01X11388Y19263D03*
G54D12*
G01X12007Y19009D03*
G01X12417Y18853D03*
G01X12021Y19361D03*
G01X10294Y19259D03*
G01X10775Y19184D03*
G54D13*
G01X10848Y20688D03*
G54D12*
G01X10850Y19930D03*
G01X10198Y20117D03*
G01X10605Y20450D03*
G54D13*
G01X8744Y19332D03*
G01X8213Y19863D03*
G01X8744Y19863D03*
G01X9276Y19863D03*
G01X8213Y19332D03*
G01X8213Y18801D03*
G01X9276Y19332D03*
G01X8744Y18801D03*
G01X9276Y18801D03*
G01X5782Y25115D03*
G01X5980Y24819D03*
G01X5586Y25411D03*
G01X5980Y25411D03*
G54D12*
G01X5144Y22257D03*
G54D13*
G01X11857Y25265D03*
G54D15*
G01X14500Y25600D03*
G01X14500Y26600D03*
G01X13501Y26598D03*
G54D17*
G01X7598Y23198D03*
G54D15*
G01X3501Y16598D03*
G01X7501Y16598D03*
G01X10501Y16598D03*
G01X9500Y15600D03*
G01X1501Y16598D03*
G01X13500Y22600D03*
G01X1501Y15598D03*
G01X3500Y15600D03*
G01X2500Y15600D03*
G01X14500Y21600D03*
G01X14501Y22598D03*
G01X14501Y23598D03*
G01X13501Y24598D03*
G01X501Y16598D03*
G01X4501Y16598D03*
G01X5501Y16598D03*
G01X5501Y15598D03*
G01X6500Y15600D03*
G01X8501Y15598D03*
G01X8501Y16598D03*
G01X11501Y15598D03*
G01X11500Y16600D03*
G01X13501Y20598D03*
G01X13501Y19598D03*
G01X13501Y21598D03*
G01X14501Y20598D03*
G01X500Y15600D03*
G01X4500Y15600D03*
G01X6500Y16600D03*
G01X7501Y15598D03*
G01X10501Y15598D03*
G01X9500Y16600D03*
G01X14500Y19600D03*
G54D17*
G01X14201Y29302D03*
G01X798Y17917D03*
G01X798Y29302D03*
G54D15*
G01X14500Y24600D03*
G01X13501Y25598D03*
G01X14500Y27600D03*
G01X13500Y27600D03*
G01X2500Y16600D03*
G01X13501Y23598D03*
G54D19*
G01X13030Y29383D02*
G01X13030Y29816D01*
G01X8330Y29383D02*
G01X8330Y29816D01*
G01X12471Y27752D02*
G01X12471Y28126D01*
G54D20*
G01X12452Y28107D02*
G01X12255Y28107D01*
G54D19*
G01X8890Y27752D02*
G01X8890Y28126D01*
G54D20*
G01X9106Y28107D02*
G01X8909Y28107D01*
G54D19*
G01X6669Y29383D02*
G01X6669Y29816D01*
G01X1969Y29383D02*
G01X1969Y29816D01*
G01X6109Y27752D02*
G01X6109Y28126D01*
G54D20*
G01X6090Y28107D02*
G01X5893Y28107D01*
G54D19*
G01X2528Y27752D02*
G01X2528Y28126D01*
G54D20*
G01X2744Y28107D02*
G01X2547Y28107D01*

M00*
M02*