;PTH Drill file created by EasyEDA 
M48
;Holesize 1 = 0.039 INCH
T01C0.039
;Holesize 2 = 0.083 INCH
T02C0.083
;Holesize 3 = 0.012 INCH
T03C0.012
;Holesize 4 = 0.020 INCH
T04C0.020
;Holesize 5 = 0.024 INCH
T05C0.024
;Holesize 6 = 0.008 INCH
T06C0.008
;Holesize 7 = 0.012 INCH
T07C0.012
;Holesize 8 = 0.016 INCH
T08C0.016
INCH,00.0000
%
G05
G90
T01
X014500Y025600
X014500Y026600
X013501Y026598
X003501Y016598
X007501Y016598
X010501Y016598
X009500Y015600
X001501Y016598
X013500Y022600
X001501Y015598
X003500Y015600
X002500Y015600
X014500Y021600
X014501Y022598
X014501Y023598
X013501Y024598
X000501Y016598
X004501Y016598
X005501Y016598
X005501Y015598
X006500Y015600
X008501Y015598
X008501Y016598
X011501Y015598
X011500Y016600
X013501Y020598
X013501Y019598
X013501Y021598
X014501Y020598
X000500Y015600
X004500Y015600
X006500Y016600
X007501Y015598
X010501Y015598
X009500Y016600
X014500Y019600
X014500Y024600
X013501Y025598
X014500Y027600
X013500Y027600
X002500Y016600
X013501Y023598
T02
X007598Y023198
X014201Y029302
X000798Y017917
X000798Y029302
T03
X008228Y023198
X007598Y023828
X006967Y023198
X007598Y022567
X007165Y022765
X008030Y022765
X008030Y023632
X007165Y023630
X014830Y029301
X014201Y029930
X013571Y029301
X014201Y028671
X013767Y028867
X014634Y028867
X014634Y029734
X013767Y029734
X001428Y017917
X000798Y018546
X000169Y017917
X000798Y017286
X000365Y017484
X001232Y017484
X001232Y018351
X000365Y018350
X001428Y029301
X000798Y029930
X000169Y029301
X000798Y028671
X000365Y028867
X001232Y028867
X001232Y029734
X000365Y029734
X004869Y027403
X003767Y027403
X010130Y027403
X011232Y027403
X012519Y025773
X011519Y025986
X011917Y027307
X011884Y026671
X012725Y027209
X009457Y027307
X009398Y025953
X007823Y026582
X006705Y027582
X005028Y026351
X006023Y026790
X005523Y027403
X006053Y024442
X005296Y023411
X004476Y023807
X004021Y022942
X004425Y022103
X004067Y021338
X004405Y020555
X004025Y024603
X007036Y025778
X011857Y025265
T04
X013030Y029816G85X013030Y029383
X008330Y029816G85X008330Y029383
X012471Y028126G85X012471Y027752
X008890Y028125G85X008890Y027752
X006669Y029816G85X006669Y029383
X001969Y029816G85X001969Y029383
X006109Y028126G85X006109Y027752
X002528Y028125G85X002528Y027752
T05
X012255Y028107G85X012452Y028107
X008909Y028107G85X009106Y028107
X005893Y028107G85X006090Y028107
X002547Y028107G85X002744Y028107
T06
X004319Y028328
X004317Y028130
X010680Y028328
X010680Y028130
X004213Y027296
X004417Y027461
X004642Y026890
X010680Y027096
X010878Y027226
X010398Y027461
X010040Y018867
X007086Y020478
X007086Y020084
X005638Y019553
X005834Y019394
X007075Y019088
X004328Y019553
X004523Y019394
X009142Y026340
X010023Y025040
X010259Y025040
X010496Y025040
X009786Y025040
X010767Y020198
X010590Y020021
X008719Y020867
X010692Y017482
X010038Y018505
X011071Y019044
X008386Y020867
X009034Y020867
X007771Y020788
X004282Y026559
X010934Y018269
X004209Y019040
X004365Y019217
X005782Y023080
X006940Y021961
X005353Y023828
X005665Y023709
X006901Y026603
X006507Y027107
X010451Y026284
X005925Y023592
X006513Y022796
X007340Y021848
X007965Y021457
X008988Y021813
X009494Y021809
X010480Y018717
X010692Y018544
X009998Y016940
X009688Y017917
X010488Y017117
X004736Y017190
X005407Y017303
X004711Y019055
X012746Y023194
X006273Y020340
X005917Y020167
X005123Y020265
X006171Y019053
X006198Y019588
X001715Y017432
X008117Y025438
X008217Y024513
X014830Y017876
X014555Y017876
X013601Y017876
X013601Y018190
X013090Y017876
X012815Y017876
X012538Y017876
X011636Y018490
X012419Y018392
X011976Y018403
X012007Y019009
X012417Y018853
X012021Y019361
X010294Y019259
X010775Y019184
X010850Y019930
X010198Y020117
X010605Y020450
X005144Y022257
T07
X005401Y020005
X005015Y017777
X006234Y017767
X004207Y018565
X004961Y018482
X000390Y019480
X001476Y019417
X000975Y020119
X002067Y020150
X002709Y019371
X003196Y020130
X002657Y020917
X002851Y022578
X001596Y020969
X000336Y020938
X000357Y022498
X001576Y022517
X000859Y023267
X002188Y021717
X002209Y023307
X002826Y024209
X002178Y025119
X002338Y026213
X001157Y025848
X003117Y027440
X000751Y027721
X001484Y027648
X003523Y026678
X009478Y024576
X010523Y024532
X011973Y024496
X011188Y023511
X011021Y022615
X011386Y022159
X011451Y022963
X005828Y021076
X005832Y021765
X007169Y024919
X012223Y015317
X012223Y015709
X012223Y016103
X012223Y016498
X012223Y016890
X012223Y017284
X012223Y017678
X011259Y017282
X011463Y017838
X011771Y017486
X014669Y018348
X014646Y018955
X014036Y019057
X013030Y018798
X013451Y018963
X012936Y019448
X012184Y020348
X011759Y020948
X012684Y020907
X011640Y019680
X011388Y019263
X010848Y020688
X008744Y019332
X008213Y019863
X008744Y019863
X009276Y019863
X008213Y019332
X008213Y018801
X009276Y019332
X008744Y018801
X009276Y018801
X005782Y025115
X005980Y024819
X005586Y025411
X005980Y025411
T08
X006121Y025828
X007067Y025286
X006826Y024398
X004503Y024907
M30
